<svg width="60" height="60" viewBox="0 0 60 60" fill="none" xmlns="http://www.w3.org/2000/svg">
<rect width="60" height="60" rx="30" fill="white"/>
<path d="M30.5161 30.3624C31.3904 29.6016 32.0916 28.6608 32.5723 27.6036C33.0529 26.5464 33.3017 25.3976 33.3017 24.2353C33.3017 22.0512 32.4385 19.9565 30.902 18.4121C29.3655 16.8676 27.2816 16 25.1087 16C22.9358 16 20.8519 16.8676 19.3154 18.4121C17.7789 19.9565 16.9158 22.0512 16.9158 24.2353C16.9158 25.3976 17.1645 26.5464 17.6451 27.6036C18.1258 28.6608 18.8271 29.6016 19.7014 30.3624C17.4076 31.4064 15.4615 33.0924 14.0957 35.2188C12.73 37.3452 12.0024 39.8219 12 42.3529C12 42.7898 12.1726 43.2087 12.4799 43.5176C12.7872 43.8265 13.204 44 13.6386 44C14.0732 44 14.49 43.8265 14.7972 43.5176C15.1045 43.2087 15.2772 42.7898 15.2772 42.3529C15.2772 39.732 16.313 37.2184 18.1568 35.3651C20.0005 33.5118 22.5012 32.4706 25.1087 32.4706C27.7162 32.4706 30.2169 33.5118 32.0607 35.3651C33.9044 37.2184 34.9402 39.732 34.9402 42.3529C34.9402 42.7898 35.1129 43.2087 35.4202 43.5176C35.7275 43.8265 36.1442 44 36.5788 44C37.0134 44 37.4302 43.8265 37.7375 43.5176C38.0448 43.2087 38.2174 42.7898 38.2174 42.3529C38.215 39.8219 37.4874 37.3452 36.1217 35.2188C34.756 33.0924 32.8098 31.4064 30.5161 30.3624ZM25.1087 29.1765C24.1365 29.1765 23.186 28.8867 22.3777 28.3437C21.5693 27.8008 20.9392 27.0291 20.5671 26.1262C20.1951 25.2233 20.0977 24.2298 20.2874 23.2713C20.4771 22.3128 20.9453 21.4324 21.6327 20.7414C22.3202 20.0503 23.1961 19.5797 24.1497 19.3891C25.1033 19.1984 26.0917 19.2963 26.9899 19.6702C27.8881 20.0442 28.6559 20.6776 29.196 21.4901C29.7362 22.3027 30.0245 23.258 30.0245 24.2353C30.0245 25.5458 29.5066 26.8026 28.5847 27.7292C27.6628 28.6559 26.4125 29.1765 25.1087 29.1765ZM41.0686 29.7035C42.1172 28.5165 42.8022 27.0502 43.0411 25.481C43.28 23.9118 43.0626 22.3067 42.4151 20.8588C41.7676 19.4109 40.7176 18.182 39.3914 17.32C38.0653 16.458 36.5195 15.9996 34.9402 16C34.5057 16 34.0889 16.1735 33.7816 16.4824C33.4743 16.7913 33.3017 17.2102 33.3017 17.6471C33.3017 18.0839 33.4743 18.5028 33.7816 18.8117C34.0889 19.1206 34.5057 19.2941 34.9402 19.2941C36.244 19.2941 37.4943 19.8147 38.4162 20.7414C39.3381 21.668 39.856 22.9248 39.856 24.2353C39.8537 25.1004 39.6255 25.9497 39.1941 26.6983C38.7628 27.447 38.1435 28.0686 37.3981 28.5012C37.1552 28.642 36.9523 28.8432 36.8088 29.0855C36.6654 29.3277 36.5862 29.6029 36.5788 29.8847C36.572 30.1643 36.6361 30.4411 36.7651 30.6889C36.8941 30.9367 37.0837 31.1474 37.3162 31.3012L37.9552 31.7294L38.1683 31.8447C40.1434 32.7864 41.8097 34.2757 42.9709 36.1375C44.1321 37.9992 44.7399 40.1557 44.7226 42.3529C44.7226 42.7898 44.8953 43.2087 45.2025 43.5176C45.5098 43.8265 45.9266 44 46.3612 44C46.7958 44 47.2126 43.8265 47.5199 43.5176C47.8272 43.2087 47.9998 42.7898 47.9998 42.3529C48.0132 39.8254 47.3834 37.3364 46.1703 35.1225C44.9571 32.9085 43.2009 31.0431 41.0686 29.7035Z" fill="#2B2A2D"/>
</svg>
