<svg width="60" height="60" viewBox="0 0 60 60" fill="none" xmlns="http://www.w3.org/2000/svg">
<rect width="60" height="60" rx="30" fill="white"/>
<path d="M44.6526 15.3006C43.5072 15.1053 42.3474 15.0047 41.1852 15C37.2198 14.9968 33.3371 16.1227 30 18.2435C26.6543 16.1505 22.7722 15.0523 18.8148 15.0791C17.6526 15.0838 16.4928 15.1844 15.3474 15.3797C14.9723 15.4438 14.6325 15.6383 14.3894 15.9284C14.1462 16.2185 14.0157 16.585 14.0212 16.9619V35.9479C14.0178 36.1804 14.0661 36.4108 14.1629 36.6226C14.2596 36.8345 14.4022 37.0227 14.5807 37.1737C14.7592 37.3248 14.9692 37.435 15.1956 37.4966C15.422 37.5582 15.6593 37.5697 15.8907 37.5301C18.1805 37.1375 20.5265 37.2027 22.7905 37.7217C25.0545 38.2407 27.1906 39.203 29.0732 40.5521L29.265 40.6628H29.4407C29.6179 40.7359 29.808 40.7736 30 40.7736C30.192 40.7736 30.3821 40.7359 30.5593 40.6628H30.735L30.9268 40.5521C32.7962 39.1729 34.9263 38.1793 37.1907 37.6303C39.4551 37.0814 41.8078 36.9881 44.1093 37.3561C44.3407 37.3956 44.578 37.3842 44.8044 37.3226C45.0308 37.261 45.2408 37.1507 45.4193 36.9997C45.5978 36.8486 45.7404 36.6605 45.8371 36.4486C45.9339 36.2367 45.9822 36.0064 45.9788 35.7739V16.7879C45.9622 16.4274 45.8216 16.0833 45.5804 15.8128C45.3391 15.5423 45.0118 15.3616 44.6526 15.3006ZM28.4021 36.3277C25.4459 34.7877 22.1552 33.984 18.8148 33.986C18.2875 33.986 17.7602 33.986 17.217 33.986V18.1643C17.7491 18.134 18.2827 18.134 18.8148 18.1643C22.2237 18.1606 25.5582 19.1511 28.4021 21.0123V36.3277ZM42.783 34.0493C42.2398 34.0493 41.7125 34.0493 41.1852 34.0493C37.8448 34.0473 34.5541 34.851 31.5979 36.3909V21.0123C34.4418 19.1511 37.7763 18.1606 41.1852 18.1643C41.7173 18.134 42.2509 18.134 42.783 18.1643V34.0493ZM44.6526 40.6153C43.5072 40.42 42.3474 40.3194 41.1852 40.3147C37.2198 40.3115 33.3371 41.4374 30 43.5582C26.6629 41.4374 22.7802 40.3115 18.8148 40.3147C17.6526 40.3194 16.4928 40.42 15.3474 40.6153C15.1394 40.648 14.94 40.7211 14.7606 40.8304C14.5813 40.9396 14.4255 41.0829 14.3022 41.252C14.179 41.4211 14.0907 41.6127 14.0425 41.8156C13.9942 42.0186 13.987 42.2291 14.0212 42.4348C14.1024 42.8457 14.3448 43.2079 14.6952 43.4422C15.0456 43.6765 15.4755 43.7637 15.8907 43.6847C18.1805 43.2922 20.5265 43.3573 22.7905 43.8763C25.0545 44.3953 27.1906 45.3577 29.0732 46.7067C29.3439 46.8975 29.6678 47 30 47C30.3322 47 30.6562 46.8975 30.9268 46.7067C32.8094 45.3577 34.9456 44.3953 37.2095 43.8763C39.4735 43.3573 41.8195 43.2922 44.1093 43.6847C44.5245 43.7637 44.9544 43.6765 45.3048 43.4422C45.6552 43.2079 45.8976 42.8457 45.9788 42.4348C46.013 42.2291 46.0058 42.0186 45.9575 41.8156C45.9093 41.6127 45.821 41.4211 45.6978 41.252C45.5745 41.0829 45.4187 40.9396 45.2394 40.8304C45.06 40.7211 44.8606 40.648 44.6526 40.6153Z" fill="#2B2A2D"/>
</svg>
