<svg width="60" height="60" viewBox="0 0 60 60" fill="none" xmlns="http://www.w3.org/2000/svg">
<rect width="60" height="60" rx="30" fill="white"/>
<path d="M36.251 24.7928L30.969 30.0049C30.6527 29.9219 30.3272 29.8779 30 29.8737C28.9922 29.8737 28.0256 30.2687 27.313 30.9719C26.6004 31.6751 26.2 32.6289 26.2 33.6234C26.2042 33.9463 26.2489 34.2675 26.333 34.5796L24.851 36.0419C24.6729 36.2162 24.5316 36.4236 24.4351 36.6521C24.3387 36.8805 24.289 37.1256 24.289 37.3731C24.289 37.6206 24.3387 37.8656 24.4351 38.0941C24.5316 38.3226 24.6729 38.5299 24.851 38.7042C25.0276 38.88 25.2378 39.0194 25.4693 39.1146C25.7009 39.2098 25.9492 39.2588 26.2 39.2588C26.4508 39.2588 26.6992 39.2098 26.9307 39.1146C27.1622 39.0194 27.3724 38.88 27.549 38.7042L29.031 37.2419C29.3473 37.3248 29.6728 37.3689 30 37.3731C31.0078 37.3731 31.9744 36.978 32.687 36.2748C33.3996 35.5716 33.8 34.6179 33.8 33.6234C33.7958 33.3005 33.7511 32.9793 33.667 32.6672L38.949 27.4551C39.3067 27.1021 39.5077 26.6232 39.5077 26.124C39.5077 25.6247 39.3067 25.1459 38.949 24.7928C38.5912 24.4398 38.1059 24.2414 37.6 24.2414C37.094 24.2414 36.6088 24.4398 36.251 24.7928ZM30 13C27.5049 13 25.0342 13.4849 22.729 14.4271C20.4239 15.3693 18.3293 16.7504 16.565 18.4913C13.0018 22.0073 11.0001 26.7761 11.0001 31.7485C10.9907 35.4618 12.1091 39.0927 14.211 42.1727C14.4932 42.5854 14.93 42.8706 15.4253 42.9655C15.9206 43.0605 16.4338 42.9574 16.852 42.6789C17.2703 42.4005 17.5593 41.9695 17.6555 41.4807C17.7517 40.992 17.6472 40.4856 17.365 40.0729C15.8346 37.8147 14.9545 35.1888 14.8186 32.4754C14.6827 29.7621 15.2961 27.0634 16.5934 24.6673C17.8907 22.2712 19.8231 20.2677 22.1844 18.8709C24.5456 17.474 27.247 16.7362 30 16.7362C32.753 16.7362 35.4544 17.474 37.8156 18.8709C40.1769 20.2677 42.1093 22.2712 43.4066 24.6673C44.7039 27.0634 45.3173 29.7621 45.1814 32.4754C45.0455 35.1888 44.1654 37.8147 42.635 40.0729C42.4949 40.2771 42.3971 40.5066 42.3471 40.7483C42.2971 40.9899 42.2959 41.2388 42.3435 41.4809C42.3912 41.723 42.4868 41.9534 42.6248 42.159C42.7628 42.3646 42.9406 42.5413 43.148 42.6789C43.4625 42.8875 43.833 42.9985 44.212 42.9977C44.5232 42.9981 44.8298 42.9231 45.1047 42.7793C45.3797 42.6354 45.6147 42.4271 45.789 42.1727C47.8909 39.0927 49.0093 35.4618 48.9999 31.7485C48.9999 26.7761 46.9982 22.0073 43.435 18.4913C39.8718 14.9753 35.0391 13 30 13Z" fill="#2B2A2D"/>
</svg>
