<svg width="24" height="24" viewBox="0 0 24 24" fill="none" xmlns="http://www.w3.org/2000/svg">
<path d="M14.88 12C14.88 12.5696 14.7111 13.1264 14.3946 13.6C14.0782 14.0737 13.6284 14.4428 13.1021 14.6608C12.5759 14.8788 11.9968 14.9358 11.4381 14.8247C10.8795 14.7135 10.3663 14.4392 9.96353 14.0365C9.56076 13.6337 9.28646 13.1205 9.17534 12.5619C9.06421 12.0032 9.12125 11.4241 9.33923 10.8979C9.55721 10.3716 9.92634 9.92183 10.4 9.60537C10.8736 9.28891 11.4304 9.12 12 9.12C12.7636 9.12087 13.4956 9.42458 14.0355 9.9645C14.5754 10.5044 14.8791 11.2364 14.88 12ZM21 8.04V15.96C20.9985 17.2962 20.467 18.5773 19.5221 19.5221C18.5773 20.467 17.2962 20.9985 15.96 21H8.04C6.70377 20.9985 5.42271 20.467 4.47785 19.5221C3.533 18.5773 3.00151 17.2962 3 15.96V8.04C3.00151 6.70377 3.533 5.42271 4.47785 4.47785C5.42271 3.533 6.70377 3.00151 8.04 3H15.96C17.2962 3.00151 18.5773 3.533 19.5221 4.47785C20.467 5.42271 20.9985 6.70377 21 8.04ZM16.32 12C16.32 11.1456 16.0666 10.3104 15.5919 9.59994C15.1173 8.88952 14.4426 8.33581 13.6532 8.00884C12.8638 7.68187 11.9952 7.59632 11.1572 7.76301C10.3192 7.9297 9.54946 8.34114 8.9453 8.9453C8.34114 9.54946 7.9297 10.3192 7.76301 11.1572C7.59632 11.9952 7.68187 12.8638 8.00884 13.6532C8.33581 14.4426 8.88952 15.1173 9.59994 15.5919C10.3104 16.0666 11.1456 16.32 12 16.32C13.1453 16.3187 14.2434 15.8631 15.0533 15.0533C15.8631 14.2434 16.3187 13.1453 16.32 12ZM17.76 7.32C17.76 7.1064 17.6967 6.89759 17.578 6.71998C17.4593 6.54238 17.2906 6.40395 17.0933 6.32221C16.896 6.24047 16.6788 6.21908 16.4693 6.26075C16.2598 6.30242 16.0674 6.40528 15.9163 6.55632C15.7653 6.70737 15.6624 6.8998 15.6208 7.1093C15.5791 7.3188 15.6005 7.53595 15.6822 7.7333C15.764 7.93064 15.9024 8.09932 16.08 8.21799C16.2576 8.33666 16.4664 8.4 16.68 8.4C16.9664 8.4 17.2411 8.28621 17.4437 8.08368C17.6462 7.88114 17.76 7.60643 17.76 7.32Z" fill="white"/>
</svg>
