<svg width="24" height="24" viewBox="0 0 24 24" fill="none" xmlns="http://www.w3.org/2000/svg">
<path d="M7.05001 21H3.225V8.9625H7.05001V21ZM5.1375 7.275C3.9 7.275 3 6.375 3 5.1375C3 3.9 4.0125 3 5.1375 3C6.375 3 7.275 3.9 7.275 5.1375C7.275 6.375 6.375 7.275 5.1375 7.275ZM21 21H17.175V14.475C17.175 12.5625 16.3875 12 15.2625 12C14.1375 12 13.0125 12.9 13.0125 14.5875V21H9.1875V8.9625H12.7875V10.65C13.125 9.8625 14.475 8.625 16.3875 8.625C18.525 8.625 20.775 9.8625 20.775 13.575V21H21Z" fill="white"/>
</svg>
