<svg width="24" height="24" viewBox="0 0 24 24" fill="none" xmlns="http://www.w3.org/2000/svg">
<path d="M21 6.73077C20.325 7.07692 19.65 7.19231 18.8625 7.30769C19.65 6.84615 20.2125 6.15385 20.4375 5.23077C19.7625 5.69231 18.975 5.92308 18.075 6.15385C17.4 5.46154 16.3875 5 15.375 5C13.0125 5 11.2125 7.30769 11.775 9.61538C8.7375 9.5 6.0375 8 4.125 5.69231C3.1125 7.42308 3.675 9.61538 5.25 10.7692C4.6875 10.7692 4.125 10.5385 3.5625 10.3077C3.5625 12.0385 4.8 13.6538 6.4875 14.1154C5.925 14.2308 5.3625 14.3462 4.8 14.2308C5.25 15.7308 6.6 16.8846 8.2875 16.8846C6.9375 17.9231 4.9125 18.5 3 18.2692C4.6875 19.3077 6.6 20 8.625 20C15.4875 20 19.3125 14.1154 19.0875 8.69231C19.875 8.23077 20.55 7.53846 21 6.73077Z" fill="white"/>
</svg>
