<svg width="182" height="40" viewBox="0 0 182 40" fill="none" xmlns="http://www.w3.org/2000/svg">
<rect width="40" height="40" rx="6" fill="url(#paint0_linear_0_163)"/>
<path d="M40 16.3888L-7.28524e-07 12.2221L40 12.2221L40 16.3888Z" fill="#0C0C0C"/>
<path d="M40 29.4446L-7.28524e-07 25.2779L40 25.2779L40 29.4446Z" fill="#0C0C0C"/>
<path d="M67.94 17.48C67.94 18.2933 67.7533 19.04 67.38 19.72C67.0067 20.3867 66.4333 20.9267 65.66 21.34C64.8867 21.7533 63.9267 21.96 62.78 21.96H60.66V27H57.24V12.96H62.78C63.9 12.96 64.8467 13.1533 65.62 13.54C66.3933 13.9267 66.9733 14.46 67.36 15.14C67.7467 15.82 67.94 16.6 67.94 17.48ZM62.52 19.24C63.1733 19.24 63.66 19.0867 63.98 18.78C64.3 18.4733 64.46 18.04 64.46 17.48C64.46 16.92 64.3 16.4867 63.98 16.18C63.66 15.8733 63.1733 15.72 62.52 15.72H60.66V19.24H62.52ZM74.8005 27.16C73.7071 27.16 72.7205 26.9267 71.8405 26.46C70.9738 25.9933 70.2871 25.3267 69.7805 24.46C69.2871 23.5933 69.0405 22.58 69.0405 21.42C69.0405 20.2733 69.2938 19.2667 69.8005 18.4C70.3071 17.52 71.0005 16.8467 71.8805 16.38C72.7605 15.9133 73.7471 15.68 74.8405 15.68C75.9338 15.68 76.9205 15.9133 77.8005 16.38C78.6805 16.8467 79.3738 17.52 79.8805 18.4C80.3871 19.2667 80.6405 20.2733 80.6405 21.42C80.6405 22.5667 80.3805 23.58 79.8605 24.46C79.3538 25.3267 78.6538 25.9933 77.7605 26.46C76.8805 26.9267 75.8938 27.16 74.8005 27.16ZM74.8005 24.2C75.4538 24.2 76.0071 23.96 76.4605 23.48C76.9271 23 77.1605 22.3133 77.1605 21.42C77.1605 20.5267 76.9338 19.84 76.4805 19.36C76.0405 18.88 75.4938 18.64 74.8405 18.64C74.1738 18.64 73.6205 18.88 73.1805 19.36C72.7405 19.8267 72.5205 20.5133 72.5205 21.42C72.5205 22.3133 72.7338 23 73.1605 23.48C73.6005 23.96 74.1471 24.2 74.8005 24.2ZM81.7748 21.42C81.7748 20.26 82.0082 19.2467 82.4748 18.38C82.9548 17.5133 83.6148 16.8467 84.4548 16.38C85.3082 15.9133 86.2815 15.68 87.3748 15.68C88.7748 15.68 89.9415 16.0467 90.8748 16.78C91.8215 17.5133 92.4415 18.5467 92.7348 19.88H89.0948C88.7882 19.0267 88.1948 18.6 87.3148 18.6C86.6882 18.6 86.1882 18.8467 85.8148 19.34C85.4415 19.82 85.2548 20.5133 85.2548 21.42C85.2548 22.3267 85.4415 23.0267 85.8148 23.52C86.1882 24 86.6882 24.24 87.3148 24.24C88.1948 24.24 88.7882 23.8133 89.0948 22.96H92.7348C92.4415 24.2667 91.8215 25.2933 90.8748 26.04C89.9282 26.7867 88.7615 27.16 87.3748 27.16C86.2815 27.16 85.3082 26.9267 84.4548 26.46C83.6148 25.9933 82.9548 25.3267 82.4748 24.46C82.0082 23.5933 81.7748 22.58 81.7748 21.42ZM101.384 27L97.9842 22.32V27H94.5642V12.2H97.9842V20.38L101.364 15.84H105.584L100.944 21.44L105.624 27H101.384ZM117.447 21.24C117.447 21.56 117.428 21.8933 117.388 22.24H109.648C109.701 22.9333 109.921 23.4667 110.308 23.84C110.708 24.2 111.194 24.38 111.768 24.38C112.621 24.38 113.214 24.02 113.548 23.3H117.188C117.001 24.0333 116.661 24.6933 116.168 25.28C115.688 25.8667 115.081 26.3267 114.348 26.66C113.614 26.9933 112.794 27.16 111.888 27.16C110.794 27.16 109.821 26.9267 108.968 26.46C108.114 25.9933 107.448 25.3267 106.968 24.46C106.488 23.5933 106.248 22.58 106.248 21.42C106.248 20.26 106.481 19.2467 106.948 18.38C107.428 17.5133 108.094 16.8467 108.948 16.38C109.801 15.9133 110.781 15.68 111.888 15.68C112.968 15.68 113.928 15.9067 114.768 16.36C115.608 16.8133 116.261 17.46 116.728 18.3C117.208 19.14 117.447 20.12 117.447 21.24ZM113.948 20.34C113.948 19.7533 113.748 19.2867 113.348 18.94C112.948 18.5933 112.448 18.42 111.848 18.42C111.274 18.42 110.788 18.5867 110.388 18.92C110.001 19.2533 109.761 19.7267 109.668 20.34H113.948ZM125.472 24.1V27H123.732C122.492 27 121.525 26.7 120.832 26.1C120.138 25.4867 119.792 24.4933 119.792 23.12V18.68H118.432V15.84H119.792V13.12H123.212V15.84H125.452V18.68H123.212V23.16C123.212 23.4933 123.292 23.7333 123.452 23.88C123.612 24.0267 123.878 24.1 124.252 24.1H125.472ZM140.115 19.8C140.928 19.9733 141.582 20.38 142.075 21.02C142.568 21.6467 142.815 22.3667 142.815 23.18C142.815 24.3533 142.402 25.2867 141.575 25.98C140.762 26.66 139.622 27 138.155 27H131.615V12.96H137.935C139.362 12.96 140.475 13.2867 141.275 13.94C142.088 14.5933 142.495 15.48 142.495 16.6C142.495 17.4267 142.275 18.1133 141.835 18.66C141.408 19.2067 140.835 19.5867 140.115 19.8ZM135.035 18.64H137.275C137.835 18.64 138.262 18.52 138.555 18.28C138.862 18.0267 139.015 17.66 139.015 17.18C139.015 16.7 138.862 16.3333 138.555 16.08C138.262 15.8267 137.835 15.7 137.275 15.7H135.035V18.64ZM137.555 24.24C138.128 24.24 138.568 24.1133 138.875 23.86C139.195 23.5933 139.355 23.2133 139.355 22.72C139.355 22.2267 139.188 21.84 138.855 21.56C138.535 21.28 138.088 21.14 137.515 21.14H135.035V24.24H137.555ZM149.879 27.16C148.785 27.16 147.799 26.9267 146.919 26.46C146.052 25.9933 145.365 25.3267 144.859 24.46C144.365 23.5933 144.119 22.58 144.119 21.42C144.119 20.2733 144.372 19.2667 144.879 18.4C145.385 17.52 146.079 16.8467 146.959 16.38C147.839 15.9133 148.825 15.68 149.919 15.68C151.012 15.68 151.999 15.9133 152.879 16.38C153.759 16.8467 154.452 17.52 154.959 18.4C155.465 19.2667 155.719 20.2733 155.719 21.42C155.719 22.5667 155.459 23.58 154.939 24.46C154.432 25.3267 153.732 25.9933 152.839 26.46C151.959 26.9267 150.972 27.16 149.879 27.16ZM149.879 24.2C150.532 24.2 151.085 23.96 151.539 23.48C152.005 23 152.239 22.3133 152.239 21.42C152.239 20.5267 152.012 19.84 151.559 19.36C151.119 18.88 150.572 18.64 149.919 18.64C149.252 18.64 148.699 18.88 148.259 19.36C147.819 19.8267 147.599 20.5133 147.599 21.42C147.599 22.3133 147.812 23 148.239 23.48C148.679 23.96 149.225 24.2 149.879 24.2ZM162.613 27.16C161.52 27.16 160.533 26.9267 159.653 26.46C158.786 25.9933 158.1 25.3267 157.593 24.46C157.1 23.5933 156.853 22.58 156.853 21.42C156.853 20.2733 157.106 19.2667 157.613 18.4C158.12 17.52 158.813 16.8467 159.693 16.38C160.573 15.9133 161.56 15.68 162.653 15.68C163.746 15.68 164.733 15.9133 165.613 16.38C166.493 16.8467 167.186 17.52 167.693 18.4C168.2 19.2667 168.453 20.2733 168.453 21.42C168.453 22.5667 168.193 23.58 167.673 24.46C167.166 25.3267 166.466 25.9933 165.573 26.46C164.693 26.9267 163.706 27.16 162.613 27.16ZM162.613 24.2C163.266 24.2 163.82 23.96 164.273 23.48C164.74 23 164.973 22.3133 164.973 21.42C164.973 20.5267 164.746 19.84 164.293 19.36C163.853 18.88 163.306 18.64 162.653 18.64C161.986 18.64 161.433 18.88 160.993 19.36C160.553 19.8267 160.333 20.5133 160.333 21.42C160.333 22.3133 160.546 23 160.973 23.48C161.413 23.96 161.96 24.2 162.613 24.2ZM177.087 27L173.687 22.32V27H170.267V12.2H173.687V20.38L177.067 15.84H181.287L176.647 21.44L181.327 27H177.087Z" fill="white"/>
<defs>
<linearGradient id="paint0_linear_0_163" x1="40" y1="20" x2="-13.9474" y2="20" gradientUnits="userSpaceOnUse">
<stop stop-color="#FEBA2F"/>
<stop offset="1" stop-color="#FCCE70"/>
</linearGradient>
</defs>
</svg>
