<svg width="191" height="60" viewBox="0 0 191 60" fill="none" xmlns="http://www.w3.org/2000/svg">
<path d="M60.5537 19.6461V10.4275H63.1068C64.71 10.4275 65.9242 10.7961 66.7495 11.5332C67.579 12.2704 67.9938 13.3997 67.9938 14.9211C67.9938 16.404 67.5446 17.5632 66.6463 18.399C65.748 19.2304 64.5338 19.6461 63.0036 19.6461H60.5537ZM61.6368 11.4047V18.669H63.0165C64.2286 18.669 65.1721 18.3604 65.8469 17.7432C66.5217 17.1261 66.8591 16.194 66.8591 14.9468C66.8591 13.7082 66.5475 12.8082 65.9242 12.2468C65.301 11.6854 64.3533 11.4047 63.081 11.4047H61.6368Z" fill="white"/>
<path d="M72.3714 19.8004C71.3442 19.8004 70.5404 19.4961 69.9602 18.8875C69.3799 18.2747 69.0898 17.4561 69.0898 16.4318C69.0898 15.3732 69.4122 14.5225 70.0569 13.8797C70.7016 13.2325 71.5075 12.909 72.4746 12.909C73.4632 12.909 74.2454 13.224 74.8214 13.854C75.4016 14.4797 75.6917 15.3047 75.6917 16.329C75.6917 17.319 75.393 18.1461 74.7956 18.8104C74.2024 19.4704 73.3944 19.8004 72.3714 19.8004ZM72.4295 18.8875C73.0957 18.8875 73.6243 18.6668 74.0155 18.2254C74.4109 17.7797 74.6086 17.1604 74.6086 16.3675C74.6086 15.6132 74.4109 15.0025 74.0155 14.5354C73.6243 14.064 73.0957 13.8282 72.4295 13.8282C71.7632 13.8282 71.2195 14.0661 70.7983 14.5418C70.3814 15.0132 70.1729 15.6304 70.1729 16.3932C70.1729 17.1947 70.3814 17.8118 70.7983 18.2447C71.2195 18.6732 71.7632 18.8875 72.4295 18.8875Z" fill="white"/>
<path d="M85.6075 13.0632L83.6282 19.6461H82.5322L81.1719 14.934C81.1375 14.8097 81.1138 14.7282 81.1009 14.6897C81.0923 14.6468 81.0794 14.5761 81.0623 14.4775H81.0365C81.015 14.5761 80.9956 14.649 80.9784 14.6961C80.9655 14.7432 80.9419 14.8182 80.9075 14.9211L79.4311 19.6461H78.348L76.3493 13.0632H77.4583L78.8251 17.9297C78.8466 18.0025 78.8638 18.0711 78.8766 18.1354C78.8895 18.1997 78.9046 18.279 78.9218 18.3732H78.9605C78.982 18.2747 79.0013 18.1954 79.0185 18.1354C79.0357 18.0711 79.0572 17.9982 79.083 17.9168L80.6045 13.0632H81.5974L82.9642 17.9425C82.9814 18.0025 82.9986 18.069 83.0158 18.1418C83.0329 18.2104 83.0523 18.2875 83.0738 18.3732H83.1125C83.1339 18.2875 83.149 18.2211 83.1576 18.174C83.1705 18.1225 83.192 18.0454 83.2221 17.9425L84.5631 13.0632H85.6075Z" fill="white"/>
<path d="M92.1966 19.6461H91.1392V15.7375C91.1392 15.0904 91.0146 14.6104 90.7653 14.2975C90.516 13.9804 90.1442 13.8218 89.6499 13.8218C89.0912 13.8218 88.6377 14.019 88.2896 14.4132C87.9457 14.8032 87.7738 15.2961 87.7738 15.8918V19.6461H86.7164V13.0632H87.7738V14.0018H87.7996C88.0489 13.6375 88.354 13.3654 88.7151 13.1854C89.0761 13.0011 89.493 12.909 89.9658 12.909C90.6879 12.909 91.2402 13.1425 91.6228 13.6097C92.0053 14.0725 92.1966 14.7432 92.1966 15.6218V19.6461Z" fill="white"/>
<path d="M94.0662 19.6461V9.90039H95.1236V19.6461H94.0662Z" fill="white"/>
<path d="M99.9654 19.8004C98.9382 19.8004 98.1344 19.4961 97.5542 18.8875C96.9739 18.2747 96.6838 17.4561 96.6838 16.4318C96.6838 15.3732 97.0062 14.5225 97.6509 13.8797C98.2956 13.2325 99.1015 12.909 100.069 12.909C101.057 12.909 101.839 13.224 102.415 13.854C102.996 14.4797 103.286 15.3047 103.286 16.329C103.286 17.319 102.987 18.1461 102.39 18.8104C101.796 19.4704 100.988 19.8004 99.9654 19.8004ZM100.023 18.8875C100.69 18.8875 101.218 18.6668 101.609 18.2254C102.005 17.7797 102.203 17.1604 102.203 16.3675C102.203 15.6132 102.005 15.0025 101.609 14.5354C101.218 14.064 100.69 13.8282 100.023 13.8282C99.3573 13.8282 98.8135 14.0661 98.3923 14.5418C97.9754 15.0132 97.7669 15.6304 97.7669 16.3932C97.7669 17.1947 97.9754 17.8118 98.3923 18.2447C98.8135 18.6732 99.3573 18.8875 100.023 18.8875Z" fill="white"/>
<path d="M109.52 19.6461H108.463V18.7718H108.437C108.214 19.1018 107.93 19.3568 107.586 19.5368C107.246 19.7125 106.87 19.8004 106.458 19.8004C105.8 19.8004 105.284 19.6247 104.91 19.2732C104.541 18.9218 104.356 18.4825 104.356 17.9554C104.356 17.3382 104.549 16.8604 104.936 16.5218C105.323 16.179 105.865 15.9668 106.561 15.8854L108.463 15.6668V15.249C108.463 14.7732 108.338 14.4175 108.089 14.1818C107.844 13.9418 107.507 13.8218 107.077 13.8218C106.668 13.8218 106.331 13.914 106.064 14.0982C105.798 14.2782 105.594 14.5311 105.452 14.8568L104.53 14.4775C104.745 13.9804 105.076 13.5947 105.523 13.3204C105.974 13.0461 106.511 12.909 107.135 12.909C107.904 12.909 108.493 13.1147 108.901 13.5261C109.314 13.9332 109.52 14.5054 109.52 15.2425V19.6461ZM108.463 16.9718V16.5218L106.632 16.7275C106.224 16.7747 105.923 16.8925 105.729 17.0811C105.536 17.2654 105.439 17.5118 105.439 17.8204C105.439 18.159 105.551 18.4311 105.774 18.6368C105.998 18.8382 106.29 18.939 106.651 18.939C107.193 18.939 107.629 18.7547 107.96 18.3861C108.295 18.0132 108.463 17.5418 108.463 16.9718Z" fill="white"/>
<path d="M116.038 18.6818C115.793 19.0461 115.48 19.3247 115.097 19.5175C114.719 19.7061 114.298 19.8004 113.833 19.8004C112.909 19.8004 112.194 19.5068 111.686 18.9197C111.184 18.3282 110.932 17.5247 110.932 16.509C110.932 15.3947 111.218 14.5161 111.79 13.8732C112.361 13.2304 113.107 12.909 114.027 12.909C114.474 12.909 114.869 12.9904 115.213 13.1532C115.561 13.3161 115.836 13.539 116.038 13.8218H116.064V9.90039H117.121V19.6461H116.064V18.6818H116.038ZM112.015 16.4575C112.015 17.2032 112.187 17.7947 112.531 18.2318C112.879 18.669 113.358 18.8875 113.969 18.8875C114.613 18.8875 115.123 18.6775 115.497 18.2575C115.875 17.8375 116.064 17.3082 116.064 16.6697V15.699C116.064 15.1761 115.881 14.7325 115.516 14.3682C115.155 14.004 114.687 13.8218 114.111 13.8218C113.47 13.8218 112.961 14.0468 112.583 14.4968C112.204 14.9468 112.015 15.6004 112.015 16.4575Z" fill="white"/>
<path d="M125.058 19.8004C124.031 19.8004 123.227 19.4961 122.647 18.8875C122.066 18.2747 121.776 17.4561 121.776 16.4318C121.776 15.3732 122.099 14.5225 122.743 13.8797C123.388 13.2325 124.194 12.909 125.161 12.909C126.15 12.909 126.932 13.224 127.508 13.854C128.088 14.4797 128.378 15.3047 128.378 16.329C128.378 17.319 128.08 18.1461 127.482 18.8104C126.889 19.4704 126.081 19.8004 125.058 19.8004ZM125.116 18.8875C125.782 18.8875 126.311 18.6668 126.702 18.2254C127.097 17.7797 127.295 17.1604 127.295 16.3675C127.295 15.6132 127.097 15.0025 126.702 14.5354C126.311 14.064 125.782 13.8282 125.116 13.8282C124.45 13.8282 123.906 14.0661 123.485 14.5418C123.068 15.0132 122.859 15.6304 122.859 16.3932C122.859 17.1947 123.068 17.8118 123.485 18.2447C123.906 18.6732 124.45 18.8875 125.116 18.8875Z" fill="white"/>
<path d="M135.419 19.6461H134.361V15.7375C134.361 15.0904 134.237 14.6104 133.987 14.2975C133.738 13.9804 133.366 13.8218 132.872 13.8218C132.313 13.8218 131.86 14.019 131.512 14.4132C131.168 14.8032 130.996 15.2961 130.996 15.8918V19.6461H129.938V13.0632H130.996V14.0018H131.022C131.271 13.6375 131.576 13.3654 131.937 13.1854C132.298 13.0011 132.715 12.909 133.188 12.909C133.91 12.909 134.462 13.1425 134.845 13.6097C135.227 14.0725 135.419 14.7432 135.419 15.6218V19.6461Z" fill="white"/>
<path d="M143.813 19.2282C143.619 19.4211 143.407 19.5625 143.175 19.6525C142.942 19.7425 142.67 19.7875 142.356 19.7875C141.836 19.7875 141.434 19.644 141.15 19.3568C140.866 19.0654 140.725 18.6497 140.725 18.1097V13.9632H139.59V13.0632H140.725V11.5075L141.782 11.3211V13.0632H143.549V13.9632H141.782V18.0197C141.782 18.3325 141.842 18.5597 141.962 18.7011C142.083 18.8425 142.272 18.9132 142.53 18.9132C142.659 18.9132 142.781 18.8875 142.897 18.8361C143.018 18.7847 143.142 18.6861 143.271 18.5404L143.813 19.2282Z" fill="white"/>
<path d="M150.582 19.6461H149.525V15.7375C149.525 15.0904 149.4 14.6104 149.151 14.2975C148.906 13.9804 148.534 13.8218 148.036 13.8218C147.477 13.8218 147.024 14.019 146.675 14.4132C146.332 14.8032 146.16 15.2982 146.16 15.8982V19.6461H145.102V9.90039H146.16V14.0018H146.185C146.435 13.6375 146.74 13.3654 147.101 13.1854C147.462 13.0011 147.879 12.909 148.352 12.909C149.074 12.909 149.626 13.1404 150.009 13.6032C150.391 14.0661 150.582 14.739 150.582 15.6218V19.6461Z" fill="white"/>
<path d="M157.861 16.5411H153.097C153.097 17.3554 153.29 17.9511 153.677 18.3282C154.068 18.7011 154.532 18.8875 155.07 18.8875C155.474 18.8875 155.828 18.7954 156.133 18.6111C156.443 18.4225 156.699 18.144 156.901 17.7754L157.765 18.2125C157.532 18.684 157.182 19.0675 156.714 19.3632C156.249 19.6547 155.678 19.8004 154.999 19.8004C154.122 19.8004 153.402 19.5111 152.839 18.9325C152.28 18.354 152.001 17.5032 152.001 16.3804C152.001 15.3818 152.284 14.5547 152.852 13.899C153.419 13.239 154.146 12.909 155.031 12.909C155.929 12.909 156.626 13.1811 157.12 13.7254C157.614 14.2654 157.861 15.0197 157.861 15.9882V16.5411ZM156.778 15.6604C156.778 15.0904 156.621 14.6425 156.308 14.3168C155.994 13.9868 155.562 13.8218 155.012 13.8218C154.479 13.8218 154.042 13.9975 153.703 14.349C153.368 14.7004 153.168 15.1375 153.103 15.6604H156.778Z" fill="white"/>
<path d="M59.6499 45.2175L66.5322 26.6974H69.9863L76.8171 45.2175H73.5177L71.9195 40.8264H64.4701L62.9364 45.2175H59.6499ZM65.295 38.2176H71.0818L68.5557 30.869C68.487 30.6795 68.4268 30.5116 68.3753 30.3653C68.3323 30.2103 68.2807 30.0209 68.2206 29.797H68.1562C68.0874 30.0037 68.0316 30.1845 67.9886 30.3394C67.9457 30.4944 67.8898 30.6709 67.8211 30.869L65.295 38.2176Z" fill="white"/>
<path d="M80.3113 43.8356H80.2598V51.3004H77.2568V31.9926H80.2598V33.8781H80.3113C80.8355 33.1463 81.4713 32.5996 82.2188 32.2379C82.9749 31.8677 83.8213 31.6826 84.7578 31.6826C86.5106 31.6826 87.8768 32.2638 88.8563 33.4261C89.8358 34.5885 90.3255 36.2071 90.3255 38.2821C90.3255 40.4518 89.7756 42.204 88.6758 43.5385C87.5846 44.8644 86.124 45.5274 84.2938 45.5274C83.4432 45.5274 82.6828 45.3853 82.0126 45.1012C81.351 44.8171 80.7839 44.3952 80.3113 43.8356ZM80.2211 38.0367V39.664C80.2211 40.637 80.5433 41.4506 81.1877 42.105C81.8408 42.7593 82.6613 43.0865 83.6494 43.0865C84.7664 43.0865 85.6428 42.6603 86.2786 41.8079C86.923 40.9555 87.2452 39.8061 87.2452 38.3596C87.2452 36.9562 86.9488 35.9015 86.3559 35.1955C85.7717 34.4808 84.964 34.1235 83.9329 34.1235C82.8417 34.1235 81.9482 34.4894 81.2522 35.2213C80.5648 35.9531 80.2211 36.8916 80.2211 38.0367Z" fill="white"/>
<path d="M94.5802 43.8356H94.5287V51.3004H91.5257V31.9926H94.5287V33.8781H94.5802C95.1043 33.1463 95.7402 32.5996 96.4877 32.2379C97.2438 31.8677 98.0901 31.6826 99.0267 31.6826C100.779 31.6826 102.146 32.2638 103.125 33.4261C104.105 34.5885 104.594 36.2071 104.594 38.2821C104.594 40.4518 104.044 42.204 102.945 43.5385C101.853 44.8644 100.393 45.5274 98.5627 45.5274C97.7121 45.5274 96.9516 45.3853 96.2815 45.1012C95.6199 44.8171 95.0528 44.3952 94.5802 43.8356ZM94.49 38.0367V39.664C94.49 40.637 94.8122 41.4506 95.4566 42.105C96.1096 42.7593 96.9302 43.0865 97.9183 43.0865C99.0353 43.0865 99.9117 42.6603 100.547 41.8079C101.192 40.9555 101.514 39.8061 101.514 38.3596C101.514 36.9562 101.218 35.9015 100.625 35.1955C100.041 34.4808 99.2329 34.1235 98.2018 34.1235C97.1106 34.1235 96.217 34.4894 95.521 35.2213C94.8337 35.9531 94.49 36.8916 94.49 38.0367Z" fill="white"/>
<path d="M109.843 41.7175L112.511 40.3744C112.898 41.2095 113.422 41.8337 114.083 42.247C114.753 42.6603 115.535 42.8669 116.429 42.8669C117.494 42.8669 118.315 42.6345 118.891 42.1695C119.475 41.7046 119.767 41.0545 119.767 40.2194C119.767 39.41 119.479 38.7643 118.903 38.2821C118.328 37.8 117.443 37.4168 116.248 37.1327C114.307 36.6764 112.902 36.0306 112.034 35.1955C111.166 34.3517 110.732 33.2195 110.732 31.7988C110.732 30.1027 111.321 28.781 112.498 27.8339C113.684 26.8782 115.144 26.4004 116.88 26.4004C118.186 26.4004 119.337 26.6888 120.334 27.2657C121.331 27.8339 122.13 28.682 122.731 29.8099L120.141 31.0756C119.745 30.3438 119.277 29.8185 118.736 29.5C118.195 29.1814 117.537 29.0221 116.764 29.0221C115.802 29.0221 115.054 29.2417 114.521 29.6808C113.989 30.1113 113.722 30.6881 113.722 31.4114C113.722 32.1346 113.967 32.7029 114.457 33.1162C114.947 33.5294 115.827 33.8824 117.099 34.1752C119.058 34.6143 120.489 35.2902 121.391 36.2028C122.302 37.1155 122.757 38.3424 122.757 39.8836C122.757 41.5281 122.211 42.8799 121.12 43.9389C120.029 44.9979 118.474 45.5274 116.455 45.5274C114.9 45.5274 113.542 45.1959 112.382 44.533C111.231 43.87 110.384 42.9315 109.843 41.7175Z" fill="white"/>
<path d="M130.956 44.3263C130.56 44.7052 130.101 44.9979 129.576 45.2045C129.052 45.4112 128.464 45.5145 127.811 45.5145C126.556 45.5145 125.607 45.2002 124.963 44.5717C124.327 43.9346 124.009 43.0047 124.009 41.7821V34.3431H121.792V31.9926H124.009V28.7509L126.999 28.2214V31.9926H130.363V34.3431H126.999V41.6788C126.999 42.204 127.102 42.5914 127.308 42.8411C127.523 43.0908 127.845 43.2156 128.275 43.2156C128.498 43.2156 128.717 43.1726 128.932 43.0865C129.147 43.0004 129.375 42.8325 129.615 42.5828L130.956 44.3263Z" fill="white"/>
<path d="M137.659 45.5274C135.571 45.5274 133.913 44.9118 132.684 43.6806C131.455 42.4494 130.841 40.7919 130.841 38.7083C130.85 36.5989 131.503 34.9027 132.8 33.6198C134.098 32.3283 135.782 31.6826 137.852 31.6826C139.932 31.6826 141.573 32.3154 142.776 33.5811C143.979 34.8468 144.58 36.4827 144.58 38.4888C144.58 40.5379 143.944 42.2255 142.673 43.5514C141.409 44.8687 139.738 45.5274 137.659 45.5274ZM137.775 43.0865C138.961 43.0865 139.88 42.6818 140.533 41.8725C141.186 41.0545 141.513 39.9525 141.513 38.5663C141.513 37.2317 141.182 36.1598 140.52 35.3504C139.867 34.5325 138.952 34.1235 137.775 34.1235C136.598 34.1235 135.657 34.5454 134.952 35.3892C134.248 36.2244 133.896 37.3092 133.896 38.6438C133.896 40.03 134.244 41.1191 134.94 41.9112C135.636 42.6947 136.581 43.0865 137.775 43.0865Z" fill="white"/>
<path d="M153.307 34.6918C153.066 34.5971 152.817 34.5239 152.559 34.4722C152.31 34.412 152.044 34.3818 151.76 34.3818C150.875 34.3818 150.158 34.7779 149.608 35.57C149.058 36.3621 148.783 37.3953 148.783 38.6696V45.2175H145.78V31.9926H148.783V34.3818H148.835C149.144 33.538 149.599 32.8923 150.201 32.4446C150.802 31.9883 151.498 31.7601 152.289 31.7601C152.624 31.7601 152.933 31.7859 153.217 31.8376C153.5 31.8892 153.805 31.9883 154.132 32.1346L153.307 34.6918Z" fill="white"/>
<path d="M165.694 39.3412H156.582C156.608 40.6154 156.952 41.5754 157.613 42.2212C158.283 42.8583 159.104 43.1769 160.075 43.1769C160.762 43.1769 161.372 43.0176 161.905 42.699C162.438 42.3719 162.889 41.8897 163.258 41.2526L165.565 42.5053C164.964 43.4696 164.195 44.2144 163.258 44.7396C162.33 45.2648 161.235 45.5274 159.972 45.5274C158.03 45.5274 156.475 44.9419 155.306 43.771C154.138 42.6 153.553 40.9168 153.553 38.7212C153.553 36.629 154.15 34.9329 155.345 33.6328C156.548 32.3327 158.051 31.6826 159.856 31.6826C161.712 31.6826 163.146 32.2379 164.16 33.3486C165.183 34.4593 165.694 36.0694 165.694 38.1788V39.3412ZM162.794 37.1973C162.794 36.1641 162.536 35.3634 162.021 34.7951C161.505 34.2268 160.801 33.9427 159.907 33.9427C158.971 33.9427 158.21 34.257 157.626 34.8855C157.042 35.5054 156.689 36.276 156.569 37.1973H162.794Z" fill="white"/>
<path d="M34.258 16.9903C35.6059 15.5087 36.3602 13.4747 36.241 11.4004C34.3765 11.4004 32.2147 12.4862 30.8461 14.0865C29.7748 15.4098 28.6248 17.4841 29.0412 19.5577C30.9653 19.7951 33.0484 18.5905 34.258 16.9903Z" fill="white"/>
<path d="M42.6818 23.5647C42.3063 23.7878 38.762 25.8933 38.762 30.3833C38.7707 30.6619 38.7994 30.9263 38.8319 31.1866H38.8304C39.4177 35.8616 43.5449 37.5331 43.6196 37.5331C43.6056 37.5508 43.5746 37.6421 43.523 37.7946C43.2838 38.5002 42.6008 40.5152 41.101 42.6093C39.6537 44.8032 38.0467 47.0152 35.6068 47.0152C34.488 47.0152 33.715 46.6753 32.9143 46.3232C32.0541 45.945 31.162 45.5527 29.7749 45.5527C28.2409 45.5527 27.2938 45.9687 26.4098 46.357C25.6363 46.6967 24.9111 47.0152 23.8833 47.0152C21.4434 47.0152 19.718 44.6845 18.1912 42.5112C16.2496 39.7262 14.6037 35.3899 14.4789 31.1866C14.4778 31.1437 14.4744 31.1005 14.4711 31.0572C14.4675 31.0102 14.4638 30.9633 14.463 30.9168C14.4225 28.6454 14.8596 26.4127 15.9699 24.5165C17.5363 21.8691 20.3339 20.0718 23.3882 20.0124C24.7242 19.9677 25.9764 20.4955 27.0707 20.9567C27.8935 21.3035 28.627 21.6127 29.24 21.6127C29.7976 21.6127 30.5528 21.3471 31.4478 21.0323C32.7496 20.5744 34.3473 20.0124 36.063 20.0124C37.3124 20.0132 40.6456 20.3884 42.7088 23.5485C42.7036 23.5518 42.6945 23.5572 42.6818 23.5647Z" fill="white"/>
</svg>
