<svg width="191" height="60" viewBox="0 0 191 60" fill="none" xmlns="http://www.w3.org/2000/svg">
<path d="M63.2843 20.5314C62.7916 20.9064 62.2192 21.2064 61.5669 21.4314C60.9147 21.6564 60.2202 21.7689 59.4835 21.7689C58.0241 21.7689 56.8534 21.3049 55.9712 20.3768C55.089 19.4486 54.6479 18.2205 54.6479 16.6924C54.6479 15.0986 55.0867 13.8096 55.9642 12.8252C56.8463 11.8408 58.0218 11.3486 59.4905 11.3486C60.3774 11.3486 61.1399 11.5291 61.7781 11.89C62.4162 12.251 62.9019 12.7572 63.2351 13.4088L62.1933 13.8869C61.9353 13.4182 61.5763 13.0619 61.1164 12.8182C60.6566 12.5697 60.1146 12.4455 59.4905 12.4455C58.4066 12.4455 57.5338 12.8299 56.8722 13.5986C56.2152 14.3627 55.8867 15.3635 55.8867 16.601C55.8867 17.8713 56.2176 18.8697 56.8792 19.5963C57.5455 20.3182 58.4277 20.6791 59.5257 20.6791C60.009 20.6791 60.4736 20.6158 60.9194 20.4893C61.3651 20.3627 61.7593 20.1752 62.1018 19.9268V17.4658H59.6876V16.3971H63.2843V20.5314Z" fill="white"/>
<path d="M70.8368 21.6002H65.4874V11.5174H70.6115V12.5861H66.6699V15.94H70.3159V17.0018H66.6699V20.5314H70.8368V21.6002Z" fill="white"/>
<path d="M78.5229 12.5861H75.609V21.6002H74.4265V12.5861H71.5195V11.5174H78.5229V12.5861Z" fill="white"/>
<path d="M84.6184 21.6002H83.4359V11.5174H84.6184V21.6002Z" fill="white"/>
<path d="M93.0225 12.5861H90.1085V21.6002H88.926V12.5861H86.0191V11.5174H93.0225V12.5861Z" fill="white"/>
<path d="M102.06 21.7689C100.634 21.7689 99.4793 21.3002 98.5971 20.3627C97.7149 19.4205 97.2738 18.1924 97.2738 16.6783C97.2738 15.0705 97.729 13.7814 98.6393 12.8111C99.5543 11.8361 100.751 11.3486 102.229 11.3486C103.618 11.3486 104.739 11.8127 105.593 12.7408C106.448 13.6689 106.875 14.8994 106.875 16.4322C106.875 18.0213 106.431 19.308 105.544 20.2924C104.657 21.2768 103.496 21.7689 102.06 21.7689ZM102.06 20.6791C103.13 20.6791 103.993 20.3018 104.65 19.5471C105.307 18.7924 105.636 17.808 105.636 16.5939C105.636 15.3424 105.314 14.3393 104.671 13.5846C104.029 12.8252 103.186 12.4455 102.145 12.4455C101.061 12.4455 100.183 12.8229 99.5121 13.5775C98.8458 14.3275 98.5126 15.326 98.5126 16.5729C98.5126 17.7963 98.8388 18.7877 99.491 19.5471C100.148 20.3018 101.004 20.6791 102.06 20.6791Z" fill="white"/>
<path d="M116.855 21.6002H115.405L110.211 13.5635C110.136 13.451 110.082 13.3713 110.049 13.3244C110.016 13.2729 109.972 13.2025 109.915 13.1135H109.873C109.882 13.2072 109.889 13.3549 109.894 13.5564C109.899 13.7533 109.901 14.0064 109.901 14.3158V21.6002H108.719V11.5174H110.253L115.307 19.4275C115.396 19.5682 115.464 19.6807 115.511 19.765C115.558 19.8447 115.612 19.9385 115.673 20.0463H115.701C115.692 19.9057 115.685 19.7158 115.68 19.4768C115.675 19.2377 115.673 18.9518 115.673 18.6189V11.5174H116.855V21.6002Z" fill="white"/>
<path d="M70.703 44.0354C69.8286 44.682 68.8155 45.2069 67.6637 45.6101C66.512 46.0048 65.3139 46.2021 64.0697 46.2021C61.2869 46.2021 59.08 45.3833 57.4489 43.7456C55.8179 42.1079 55.0024 39.9033 55.0024 37.1318C55.0024 34.2848 55.8179 31.9752 57.4489 30.2031C59.08 28.4227 61.1986 27.5324 63.8048 27.5324C65.5031 27.5324 66.9323 27.8684 68.0925 28.5402C69.2527 29.2037 70.1313 30.1107 70.7282 31.2613L68.2186 32.4707C67.773 31.6896 67.1887 31.1102 66.4657 30.7322C65.7427 30.3543 64.9062 30.1653 63.9562 30.1653C62.2495 30.1653 60.8581 30.7742 59.782 31.992C58.7142 33.2098 58.1804 34.8475 58.1804 36.9051C58.1804 39.0131 58.7142 40.6508 59.782 41.8182C60.8581 42.9855 62.2747 43.5692 64.0318 43.5692C64.7128 43.5692 65.3728 43.4853 66.0117 43.3173C66.6507 43.1409 67.214 42.8848 67.7016 42.5488V38.8073H63.6913V36.2248H70.703V44.0354Z" fill="white"/>
<path d="M78.3845 46.2021C76.3415 46.2021 74.7189 45.6017 73.5167 44.4007C72.3145 43.1997 71.7133 41.583 71.7133 39.5506C71.7218 37.493 72.3607 35.8385 73.6302 34.5871C74.8997 33.3273 76.5475 32.6975 78.5737 32.6975C80.6082 32.6975 82.214 33.3147 83.391 34.5493C84.568 35.7839 85.1565 37.3796 85.1565 39.3364C85.1565 41.3353 84.5344 42.9813 83.2901 44.2747C82.0543 45.5597 80.419 46.2021 78.3845 46.2021ZM78.498 43.8212C79.6582 43.8212 80.5578 43.4265 81.1967 42.637C81.8357 41.8392 82.1551 40.7642 82.1551 39.412C82.1551 38.1103 81.8315 37.0646 81.1841 36.2752C80.5452 35.4773 79.6498 35.0784 78.498 35.0784C77.3462 35.0784 76.4256 35.4899 75.7362 36.313C75.0468 37.1276 74.7021 38.1858 74.7021 39.4876C74.7021 40.8397 75.0426 41.9021 75.7236 42.6748C76.4046 43.4391 77.3294 43.8212 78.498 43.8212Z" fill="white"/>
<path d="M92.1697 46.2021C90.1267 46.2021 88.5041 45.6017 87.3019 44.4007C86.0996 43.1997 85.4985 41.583 85.4985 39.5506C85.5069 37.493 86.1459 35.8385 87.4154 34.5871C88.6849 33.3273 90.3327 32.6975 92.3588 32.6975C94.3934 32.6975 95.9992 33.3147 97.1762 34.5493C98.3532 35.7839 98.9417 37.3796 98.9417 39.3364C98.9417 41.3353 98.3196 42.9813 97.0753 44.2747C95.8394 45.5597 94.2042 46.2021 92.1697 46.2021ZM92.2832 43.8212C93.4434 43.8212 94.3429 43.4265 94.9819 42.637C95.6208 41.8392 95.9403 40.7642 95.9403 39.412C95.9403 38.1103 95.6166 37.0646 94.9693 36.2752C94.3303 35.4773 93.435 35.0784 92.2832 35.0784C91.1314 35.0784 90.2108 35.4899 89.5214 36.313C88.832 37.1276 88.4873 38.1858 88.4873 39.4876C88.4873 40.8397 88.8278 41.9021 89.5088 42.6748C90.1898 43.4391 91.1146 43.8212 92.2832 43.8212Z" fill="white"/>
<path d="M112.084 45.1565C112.084 47.3317 111.491 49.0114 110.306 50.1956C109.129 51.3798 107.493 51.9719 105.4 51.9719C104.063 51.9719 102.899 51.7325 101.907 51.2538C100.915 50.7835 100.082 50.1074 99.4098 49.2256L101.541 47.6383C102.029 48.3186 102.579 48.8267 103.193 49.1626C103.815 49.4985 104.563 49.6665 105.438 49.6665C106.606 49.6665 107.514 49.3306 108.162 48.6587C108.818 47.9868 109.145 46.9874 109.145 45.6604V44.1739H109.095C108.624 44.8374 108.048 45.3413 107.367 45.6856C106.695 46.03 105.858 46.2021 104.858 46.2021C103.176 46.2021 101.827 45.6395 100.81 44.5141C99.7924 43.3803 99.2837 41.8014 99.2837 39.7773C99.2837 37.5602 99.8638 35.8259 101.024 34.5745C102.193 33.3231 103.655 32.6975 105.413 32.6975C106.178 32.6975 106.884 32.8402 107.531 33.1258C108.179 33.4113 108.7 33.8229 109.095 34.3604H109.145V32.9998H112.084V45.1565ZM109.171 39.9033V38.4042C109.171 37.4804 108.86 36.6951 108.237 36.0484C107.615 35.4018 106.812 35.0784 105.829 35.0784C104.736 35.0784 103.87 35.4731 103.231 36.2626C102.592 37.0521 102.272 38.1774 102.272 39.6388C102.272 40.9405 102.567 41.9651 103.155 42.7126C103.752 43.4517 104.576 43.8212 105.627 43.8212C106.678 43.8212 107.531 43.4601 108.187 42.7378C108.843 42.0155 109.171 41.0707 109.171 39.9033Z" fill="white"/>
<path d="M114.078 45.8998V26.8018H117.016V45.8998H114.078Z" fill="white"/>
<path d="M130.082 40.1679H121.167C121.192 41.4108 121.528 42.3473 122.175 42.9771C122.831 43.5986 123.634 43.9094 124.584 43.9094C125.257 43.9094 125.854 43.754 126.375 43.4433C126.896 43.1241 127.338 42.6538 127.699 42.0323L129.956 43.2543C129.368 44.1949 128.615 44.9214 127.699 45.4337C126.791 45.946 125.719 46.2021 124.483 46.2021C122.583 46.2021 121.061 45.6311 119.918 44.4889C118.775 43.3467 118.203 41.7048 118.203 39.5632C118.203 37.5224 118.787 35.8679 119.956 34.5997C121.133 33.3315 122.604 32.6975 124.37 32.6975C126.186 32.6975 127.59 33.2392 128.582 34.3226C129.582 35.406 130.082 36.9765 130.082 39.0341V40.1679ZM127.245 38.0767C127.245 37.0688 126.993 36.2878 126.488 35.7335C125.984 35.1792 125.295 34.9021 124.42 34.9021C123.504 34.9021 122.76 35.2086 122.188 35.8217C121.616 36.4264 121.272 37.178 121.154 38.0767H127.245Z" fill="white"/>
<path d="M139.039 39.6136V45.8998H136.038V27.8348H141.612C143.688 27.8348 145.282 28.3219 146.391 29.2961C147.509 30.2619 148.069 31.6561 148.069 33.4785C148.069 35.3346 147.446 36.8211 146.202 37.9381C144.958 39.0551 143.281 39.6136 141.17 39.6136H139.039ZM139.039 30.2913V37.1444H141.032C142.284 37.1444 143.243 36.8379 143.907 36.2248C144.58 35.6033 144.916 34.7299 144.916 33.6045C144.916 32.5211 144.601 31.698 143.97 31.1354C143.348 30.5727 142.423 30.2913 141.196 30.2913H139.039Z" fill="white"/>
<path d="M149.016 45.8998V26.8018H151.954V45.8998H149.016Z" fill="white"/>
<path d="M163.835 45.8998H160.998V44.2999H160.947C160.493 44.9214 159.938 45.3959 159.283 45.7234C158.627 46.0426 157.895 46.2021 157.088 46.2021C155.895 46.2021 154.915 45.862 154.15 45.1817C153.393 44.5015 153.015 43.6112 153.015 42.511C153.015 41.3269 153.393 40.3778 154.15 39.664C154.915 38.9417 156.008 38.5008 157.429 38.3412L161.01 37.9381V37.3208C161.01 36.5229 160.788 35.9267 160.342 35.5319C159.896 35.1288 159.312 34.9272 158.589 34.9272C157.874 34.9272 157.273 35.0868 156.786 35.406C156.298 35.7251 155.895 36.1828 155.575 36.7791L153.381 35.6579C153.818 34.7929 154.507 34.0832 155.449 33.5289C156.391 32.9746 157.509 32.6975 158.803 32.6975C160.434 32.6975 161.679 33.1258 162.536 33.9824C163.402 34.8307 163.835 36.0652 163.835 37.6861V45.8998ZM161.01 40.6592V39.9537L157.895 40.2938C157.181 40.3694 156.66 40.5668 156.332 40.8859C156.004 41.2051 155.84 41.6334 155.84 42.1709C155.84 42.7168 156.025 43.1619 156.395 43.5062C156.773 43.8422 157.261 44.0102 157.858 44.0102C158.799 44.0102 159.56 43.6952 160.14 43.0653C160.72 42.427 161.01 41.625 161.01 40.6592Z" fill="white"/>
<path d="M177.356 32.9998L171.353 48.4697C170.907 49.6203 170.306 50.4895 169.549 51.0774C168.801 51.6737 167.889 51.9719 166.813 51.9719C166.292 51.9719 165.8 51.9131 165.337 51.7955C164.883 51.6863 164.45 51.51 164.038 51.2664L165.312 49.2004C165.573 49.3516 165.808 49.4565 166.018 49.5153C166.229 49.5825 166.447 49.6161 166.674 49.6161C167.069 49.6161 167.406 49.5153 167.683 49.3138C167.969 49.1206 168.225 48.7637 168.452 48.243L169.398 46.051L164.329 32.9998H167.532L170.495 41.5536C170.588 41.814 170.659 42.0449 170.71 42.2465C170.76 42.448 170.819 42.6958 170.886 42.9897H170.949C171.008 42.6958 171.067 42.4522 171.126 42.2591C171.193 42.0659 171.269 41.8392 171.353 41.5788L174.342 32.9998H177.356Z" fill="white"/>
<path fill-rule="evenodd" clip-rule="evenodd" d="M13.8624 12.2564C13.4502 12.6983 13.2139 13.3791 13.2139 14.2639V45.7253C13.2139 46.6101 13.4502 47.2908 13.8779 47.7172L13.9897 47.8115L31.6366 30.1831V29.7869L13.9741 12.1621L13.8624 12.2564Z" fill="url(#paint0_linear_25_1095)"/>
<path fill-rule="evenodd" clip-rule="evenodd" d="M37.5071 36.0822L31.6211 30.2006V29.7889L37.5089 23.9072L37.6362 23.9859L44.6002 27.9396C46.5943 29.0623 46.5943 30.9125 44.6002 32.0507L37.6362 36.0045C37.6344 36.0035 37.5071 36.0822 37.5071 36.0822Z" fill="url(#paint1_linear_25_1095)"/>
<path fill-rule="evenodd" clip-rule="evenodd" d="M37.6342 36.003L31.6209 29.9941L13.8623 47.7342C14.5108 48.4305 15.6026 48.5092 16.8227 47.8284L37.6342 36.003Z" fill="url(#paint2_linear_25_1095)"/>
<path fill-rule="evenodd" clip-rule="evenodd" d="M37.6342 23.9876L16.8227 12.1777C15.6045 11.4814 14.5108 11.5756 13.8623 12.2719L31.6191 29.9946L37.6342 23.9876Z" fill="url(#paint3_linear_25_1095)"/>
<defs>
<linearGradient id="paint0_linear_25_1095" x1="42.1499" y1="1.82384" x2="4.07265" y2="11.9874" gradientUnits="userSpaceOnUse">
<stop stop-color="#047ED6"/>
<stop offset="1" stop-color="#50E6FF"/>
</linearGradient>
<linearGradient id="paint1_linear_25_1095" x1="47.1974" y1="29.9934" x2="27.4541" y2="29.9934" gradientUnits="userSpaceOnUse">
<stop stop-color="#FFDA1C"/>
<stop offset="1" stop-color="#FEB705"/>
</linearGradient>
<linearGradient id="paint2_linear_25_1095" x1="34.3593" y1="33.2594" x2="11.7049" y2="71.4347" gradientUnits="userSpaceOnUse">
<stop stop-color="#D9414F"/>
<stop offset="1" stop-color="#8C193F"/>
</linearGradient>
<linearGradient id="paint3_linear_25_1095" x1="9.38899" y1="1.78751" x2="19.4952" y2="18.8389" gradientUnits="userSpaceOnUse">
<stop stop-color="#33C481"/>
<stop offset="1" stop-color="#61E3A7"/>
</linearGradient>
</defs>
</svg>
