<svg width="223" height="76" viewBox="0 0 223 76" fill="none" xmlns="http://www.w3.org/2000/svg">
<rect width="223" height="76" fill="#05020D"/>
<rect x="18" y="18" width="40" height="40" rx="6" fill="url(#paint0_linear_39_1484)"/>
<path d="M58 34.3887L18 30.222L58 30.222L58 34.3887Z" fill="#0C0C0C"/>
<path d="M58 47.4443L18 43.2777L58 43.2777L58 47.4443Z" fill="#0C0C0C"/>
<path d="M85.94 35.48C85.94 36.2933 85.7533 37.04 85.38 37.72C85.0067 38.3867 84.4333 38.9267 83.66 39.34C82.8867 39.7533 81.9267 39.96 80.78 39.96H78.66V45H75.24V30.96H80.78C81.9 30.96 82.8467 31.1533 83.62 31.54C84.3933 31.9267 84.9733 32.46 85.36 33.14C85.7467 33.82 85.94 34.6 85.94 35.48ZM80.52 37.24C81.1733 37.24 81.66 37.0867 81.98 36.78C82.3 36.4733 82.46 36.04 82.46 35.48C82.46 34.92 82.3 34.4867 81.98 34.18C81.66 33.8733 81.1733 33.72 80.52 33.72H78.66V37.24H80.52ZM92.8005 45.16C91.7071 45.16 90.7205 44.9267 89.8405 44.46C88.9738 43.9933 88.2871 43.3267 87.7805 42.46C87.2871 41.5933 87.0405 40.58 87.0405 39.42C87.0405 38.2733 87.2938 37.2667 87.8005 36.4C88.3071 35.52 89.0005 34.8467 89.8805 34.38C90.7605 33.9133 91.7471 33.68 92.8405 33.68C93.9338 33.68 94.9205 33.9133 95.8005 34.38C96.6805 34.8467 97.3738 35.52 97.8805 36.4C98.3871 37.2667 98.6405 38.2733 98.6405 39.42C98.6405 40.5667 98.3805 41.58 97.8605 42.46C97.3538 43.3267 96.6538 43.9933 95.7605 44.46C94.8805 44.9267 93.8938 45.16 92.8005 45.16ZM92.8005 42.2C93.4538 42.2 94.0071 41.96 94.4605 41.48C94.9271 41 95.1605 40.3133 95.1605 39.42C95.1605 38.5267 94.9338 37.84 94.4805 37.36C94.0405 36.88 93.4938 36.64 92.8405 36.64C92.1738 36.64 91.6205 36.88 91.1805 37.36C90.7405 37.8267 90.5205 38.5133 90.5205 39.42C90.5205 40.3133 90.7338 41 91.1605 41.48C91.6005 41.96 92.1471 42.2 92.8005 42.2ZM99.7748 39.42C99.7748 38.26 100.008 37.2467 100.475 36.38C100.955 35.5133 101.615 34.8467 102.455 34.38C103.308 33.9133 104.282 33.68 105.375 33.68C106.775 33.68 107.942 34.0467 108.875 34.78C109.822 35.5133 110.442 36.5467 110.735 37.88H107.095C106.788 37.0267 106.195 36.6 105.315 36.6C104.688 36.6 104.188 36.8467 103.815 37.34C103.442 37.82 103.255 38.5133 103.255 39.42C103.255 40.3267 103.442 41.0267 103.815 41.52C104.188 42 104.688 42.24 105.315 42.24C106.195 42.24 106.788 41.8133 107.095 40.96H110.735C110.442 42.2667 109.822 43.2933 108.875 44.04C107.928 44.7867 106.762 45.16 105.375 45.16C104.282 45.16 103.308 44.9267 102.455 44.46C101.615 43.9933 100.955 43.3267 100.475 42.46C100.008 41.5933 99.7748 40.58 99.7748 39.42ZM119.384 45L115.984 40.32V45H112.564V30.2H115.984V38.38L119.364 33.84H123.584L118.944 39.44L123.624 45H119.384ZM135.447 39.24C135.447 39.56 135.428 39.8933 135.388 40.24H127.648C127.701 40.9333 127.921 41.4667 128.308 41.84C128.708 42.2 129.194 42.38 129.768 42.38C130.621 42.38 131.214 42.02 131.548 41.3H135.188C135.001 42.0333 134.661 42.6933 134.168 43.28C133.688 43.8667 133.081 44.3267 132.348 44.66C131.614 44.9933 130.794 45.16 129.888 45.16C128.794 45.16 127.821 44.9267 126.968 44.46C126.114 43.9933 125.448 43.3267 124.968 42.46C124.488 41.5933 124.248 40.58 124.248 39.42C124.248 38.26 124.481 37.2467 124.948 36.38C125.428 35.5133 126.094 34.8467 126.948 34.38C127.801 33.9133 128.781 33.68 129.888 33.68C130.968 33.68 131.928 33.9067 132.768 34.36C133.608 34.8133 134.261 35.46 134.728 36.3C135.208 37.14 135.447 38.12 135.447 39.24ZM131.948 38.34C131.948 37.7533 131.748 37.2867 131.348 36.94C130.948 36.5933 130.448 36.42 129.848 36.42C129.274 36.42 128.788 36.5867 128.388 36.92C128.001 37.2533 127.761 37.7267 127.668 38.34H131.948ZM143.472 42.1V45H141.732C140.492 45 139.525 44.7 138.832 44.1C138.138 43.4867 137.792 42.4933 137.792 41.12V36.68H136.432V33.84H137.792V31.12H141.212V33.84H143.452V36.68H141.212V41.16C141.212 41.4933 141.292 41.7333 141.452 41.88C141.612 42.0267 141.878 42.1 142.252 42.1H143.472ZM158.115 37.8C158.928 37.9733 159.582 38.38 160.075 39.02C160.568 39.6467 160.815 40.3667 160.815 41.18C160.815 42.3533 160.402 43.2867 159.575 43.98C158.762 44.66 157.622 45 156.155 45H149.615V30.96H155.935C157.362 30.96 158.475 31.2867 159.275 31.94C160.088 32.5933 160.495 33.48 160.495 34.6C160.495 35.4267 160.275 36.1133 159.835 36.66C159.408 37.2067 158.835 37.5867 158.115 37.8ZM153.035 36.64H155.275C155.835 36.64 156.262 36.52 156.555 36.28C156.862 36.0267 157.015 35.66 157.015 35.18C157.015 34.7 156.862 34.3333 156.555 34.08C156.262 33.8267 155.835 33.7 155.275 33.7H153.035V36.64ZM155.555 42.24C156.128 42.24 156.568 42.1133 156.875 41.86C157.195 41.5933 157.355 41.2133 157.355 40.72C157.355 40.2267 157.188 39.84 156.855 39.56C156.535 39.28 156.088 39.14 155.515 39.14H153.035V42.24H155.555ZM167.879 45.16C166.785 45.16 165.799 44.9267 164.919 44.46C164.052 43.9933 163.365 43.3267 162.859 42.46C162.365 41.5933 162.119 40.58 162.119 39.42C162.119 38.2733 162.372 37.2667 162.879 36.4C163.385 35.52 164.079 34.8467 164.959 34.38C165.839 33.9133 166.825 33.68 167.919 33.68C169.012 33.68 169.999 33.9133 170.879 34.38C171.759 34.8467 172.452 35.52 172.959 36.4C173.465 37.2667 173.719 38.2733 173.719 39.42C173.719 40.5667 173.459 41.58 172.939 42.46C172.432 43.3267 171.732 43.9933 170.839 44.46C169.959 44.9267 168.972 45.16 167.879 45.16ZM167.879 42.2C168.532 42.2 169.085 41.96 169.539 41.48C170.005 41 170.239 40.3133 170.239 39.42C170.239 38.5267 170.012 37.84 169.559 37.36C169.119 36.88 168.572 36.64 167.919 36.64C167.252 36.64 166.699 36.88 166.259 37.36C165.819 37.8267 165.599 38.5133 165.599 39.42C165.599 40.3133 165.812 41 166.239 41.48C166.679 41.96 167.225 42.2 167.879 42.2ZM180.613 45.16C179.52 45.16 178.533 44.9267 177.653 44.46C176.786 43.9933 176.1 43.3267 175.593 42.46C175.1 41.5933 174.853 40.58 174.853 39.42C174.853 38.2733 175.106 37.2667 175.613 36.4C176.12 35.52 176.813 34.8467 177.693 34.38C178.573 33.9133 179.56 33.68 180.653 33.68C181.746 33.68 182.733 33.9133 183.613 34.38C184.493 34.8467 185.186 35.52 185.693 36.4C186.2 37.2667 186.453 38.2733 186.453 39.42C186.453 40.5667 186.193 41.58 185.673 42.46C185.166 43.3267 184.466 43.9933 183.573 44.46C182.693 44.9267 181.706 45.16 180.613 45.16ZM180.613 42.2C181.266 42.2 181.82 41.96 182.273 41.48C182.74 41 182.973 40.3133 182.973 39.42C182.973 38.5267 182.746 37.84 182.293 37.36C181.853 36.88 181.306 36.64 180.653 36.64C179.986 36.64 179.433 36.88 178.993 37.36C178.553 37.8267 178.333 38.5133 178.333 39.42C178.333 40.3133 178.546 41 178.973 41.48C179.413 41.96 179.96 42.2 180.613 42.2ZM195.087 45L191.687 40.32V45H188.267V30.2H191.687V38.38L195.067 33.84H199.287L194.647 39.44L199.327 45H195.087Z" fill="white"/>
<defs>
<linearGradient id="paint0_linear_39_1484" x1="58" y1="38" x2="4.05263" y2="38" gradientUnits="userSpaceOnUse">
<stop stop-color="#FEBA2F"/>
<stop offset="1" stop-color="#FCCE70"/>
</linearGradient>
</defs>
</svg>
