<svg width="148" height="46" viewBox="0 0 148 46" fill="none" xmlns="http://www.w3.org/2000/svg">
<path d="M46.9211 15.0616V7.99399H48.8995C50.1417 7.99399 51.0826 8.27656 51.722 8.8417C52.3648 9.40684 52.6862 10.2726 52.6862 11.4391C52.6862 12.5759 52.3382 13.4647 51.6421 14.1054C50.946 14.7428 50.0052 15.0616 48.8195 15.0616H46.9211ZM47.7604 8.74313V14.3124H48.8295C49.7687 14.3124 50.4998 14.0758 51.0226 13.6027C51.5455 13.1296 51.807 12.4149 51.807 11.4588C51.807 10.5092 51.5655 9.8192 51.0826 9.38877C50.5997 8.95834 49.8653 8.74313 48.8795 8.74313H47.7604Z" fill="white"/>
<path d="M56.0783 15.1798C55.2823 15.1798 54.6595 14.9466 54.2099 14.48C53.7603 14.0101 53.5355 13.3826 53.5355 12.5973C53.5355 11.7857 53.7853 11.1335 54.2849 10.6406C54.7844 10.1445 55.4089 9.89641 56.1583 9.89641C56.9243 9.89641 57.5304 10.1379 57.9767 10.6209C58.4263 11.1006 58.6511 11.7331 58.6511 12.5184C58.6511 13.2774 58.4197 13.9116 57.9567 14.4208C57.4971 14.9268 56.871 15.1798 56.0783 15.1798ZM56.1233 14.48C56.6395 14.48 57.0492 14.3108 57.3522 13.9723C57.6586 13.6306 57.8118 13.1558 57.8118 12.548C57.8118 11.9697 57.6586 11.5015 57.3522 11.1433C57.0492 10.7819 56.6395 10.6012 56.1233 10.6012C55.6071 10.6012 55.1858 10.7836 54.8594 11.1483C54.5363 11.5097 54.3748 11.9828 54.3748 12.5677C54.3748 13.1821 54.5363 13.6553 54.8594 13.9871C55.1858 14.3157 55.6071 14.48 56.1233 14.48Z" fill="white"/>
<path d="M66.3346 10.0147L64.8009 15.0616H63.9516L62.8975 11.4489C62.8709 11.3536 62.8525 11.2912 62.8425 11.2616C62.8359 11.2288 62.8259 11.1746 62.8126 11.099H62.7926C62.7759 11.1746 62.761 11.2304 62.7476 11.2666C62.7376 11.3027 62.7193 11.3602 62.6927 11.4391L61.5487 15.0616H60.7094L59.1607 10.0147H60.02L61.0791 13.7456C61.0957 13.8015 61.109 13.8541 61.119 13.9033C61.129 13.9526 61.1407 14.0134 61.154 14.0857H61.184C61.2006 14.0101 61.2156 13.9493 61.2289 13.9033C61.2422 13.8541 61.2589 13.7982 61.2789 13.7358L62.4579 10.0147H63.2272L64.2863 13.7555C64.2996 13.8015 64.313 13.8524 64.3263 13.9083C64.3396 13.9608 64.3546 14.02 64.3712 14.0857H64.4012C64.4179 14.02 64.4295 13.9691 64.4362 13.9329C64.4462 13.8935 64.4628 13.8343 64.4861 13.7555L65.5253 10.0147H66.3346Z" fill="white"/>
<path d="M71.4402 15.0616H70.6209V12.065C70.6209 11.5688 70.5243 11.2008 70.3312 10.961C70.138 10.7178 69.8499 10.5963 69.4669 10.5963C69.0339 10.5963 68.6826 10.7474 68.4128 11.0497C68.1464 11.3487 68.0131 11.7266 68.0131 12.1833V15.0616H67.1938V10.0147H68.0131V10.7343H68.0331C68.2263 10.455 68.4628 10.2463 68.7425 10.1083C69.0223 9.96706 69.3453 9.89641 69.7117 9.89641C70.2712 9.89641 70.6992 10.0755 70.9956 10.4336C71.292 10.7885 71.4402 11.3027 71.4402 11.9763V15.0616Z" fill="white"/>
<path d="M72.889 15.0616V7.58984H73.7083V15.0616H72.889Z" fill="white"/>
<path d="M77.4601 15.1798C76.6641 15.1798 76.0413 14.9466 75.5917 14.48C75.142 14.0101 74.9172 13.3826 74.9172 12.5973C74.9172 11.7857 75.167 11.1335 75.6666 10.6406C76.1662 10.1445 76.7906 9.89641 77.54 9.89641C78.306 9.89641 78.9122 10.1379 79.3584 10.6209C79.8081 11.1006 80.0329 11.7331 80.0329 12.5184C80.0329 13.2774 79.8014 13.9116 79.3385 14.4208C78.8789 14.9268 78.2527 15.1798 77.4601 15.1798ZM77.505 14.48C78.0213 14.48 78.4309 14.3108 78.734 13.9723C79.0404 13.6306 79.1936 13.1558 79.1936 12.548C79.1936 11.9697 79.0404 11.5015 78.734 11.1433C78.4309 10.7819 78.0213 10.6012 77.505 10.6012C76.9888 10.6012 76.5675 10.7836 76.2411 11.1483C75.9181 11.5097 75.7565 11.9828 75.7565 12.5677C75.7565 13.1821 75.9181 13.6553 76.2411 13.9871C76.5675 14.3157 76.9888 14.48 77.505 14.48Z" fill="white"/>
<path d="M84.8637 15.0616H84.0444V14.3913H84.0245C83.8513 14.6443 83.6315 14.8398 83.365 14.9778C83.1019 15.1125 82.8105 15.1798 82.4908 15.1798C81.9812 15.1798 81.5816 15.0451 81.2918 14.7757C81.0054 14.5063 80.8622 14.1695 80.8622 13.7653C80.8622 13.2922 81.012 12.9258 81.3118 12.6663C81.6115 12.4034 82.0312 12.2408 82.5707 12.1783L84.0444 12.0108V11.6904C84.0444 11.3257 83.9479 11.053 83.7547 10.8723C83.5649 10.6883 83.3034 10.5963 82.9704 10.5963C82.654 10.5963 82.3925 10.6669 82.186 10.8082C81.9795 10.9462 81.8213 11.1401 81.7114 11.3898L80.9971 11.099C81.1636 10.7178 81.42 10.4221 81.7664 10.2118C82.1161 10.0016 82.5324 9.89641 83.0153 9.89641C83.6115 9.89641 84.0678 10.0541 84.3842 10.3696C84.7039 10.6817 84.8637 11.1203 84.8637 11.6855V15.0616ZM84.0444 13.0113V12.6663L82.6257 12.824C82.3093 12.8601 82.0761 12.9505 81.9263 13.0951C81.7764 13.2363 81.7014 13.4253 81.7014 13.6618C81.7014 13.9214 81.788 14.1301 81.9612 14.2878C82.1344 14.4422 82.3609 14.5194 82.6406 14.5194C83.0603 14.5194 83.3983 14.3781 83.6548 14.0956C83.9146 13.8097 84.0444 13.4483 84.0444 13.0113Z" fill="white"/>
<path d="M89.9144 14.3223C89.7246 14.6016 89.4815 14.8151 89.1851 14.963C88.892 15.1076 88.5656 15.1798 88.2059 15.1798C87.4898 15.1798 86.9353 14.9548 86.5423 14.5046C86.1526 14.0512 85.9578 13.4351 85.9578 12.6564C85.9578 11.8021 86.1793 11.1286 86.6222 10.6357C87.0652 10.1428 87.643 9.89641 88.3558 9.89641C88.7021 9.89641 89.0085 9.95884 89.275 10.0837C89.5448 10.2086 89.7579 10.3794 89.9144 10.5963H89.9344V7.58984H90.7537V15.0616H89.9344V14.3223H89.9144ZM86.7971 12.617C86.7971 13.1887 86.9303 13.6421 87.1968 13.9773C87.4665 14.3124 87.8379 14.48 88.3108 14.48C88.8104 14.48 89.205 14.319 89.4948 13.997C89.7879 13.675 89.9344 13.2692 89.9344 12.7796V12.0354C89.9344 11.6346 89.7929 11.2945 89.5098 11.0152C89.23 10.7359 88.867 10.5963 88.4207 10.5963C87.9245 10.5963 87.5298 10.7688 87.2367 11.1138C86.9436 11.4588 86.7971 11.9598 86.7971 12.617Z" fill="white"/>
<path d="M96.9035 15.1798C96.1075 15.1798 95.4847 14.9466 95.0351 14.48C94.5854 14.0101 94.3606 13.3826 94.3606 12.5973C94.3606 11.7857 94.6104 11.1335 95.11 10.6406C95.6096 10.1445 96.234 9.89641 96.9834 9.89641C97.7494 9.89641 98.3556 10.1379 98.8018 10.6209C99.2515 11.1006 99.4763 11.7331 99.4763 12.5184C99.4763 13.2774 99.2448 13.9116 98.7819 14.4208C98.3223 14.9268 97.6961 15.1798 96.9035 15.1798ZM96.9484 14.48C97.4647 14.48 97.8743 14.3108 98.1774 13.9723C98.4838 13.6306 98.637 13.1558 98.637 12.548C98.637 11.9697 98.4838 11.5015 98.1774 11.1433C97.8743 10.7819 97.4647 10.6012 96.9484 10.6012C96.4322 10.6012 96.0109 10.7836 95.6845 11.1483C95.3615 11.5097 95.1999 11.9828 95.1999 12.5677C95.1999 13.1821 95.3615 13.6553 95.6845 13.9871C96.0109 14.3157 96.4322 14.48 96.9484 14.48Z" fill="white"/>
<path d="M104.932 15.0616H104.112V12.065C104.112 11.5688 104.016 11.2008 103.823 10.961C103.629 10.7178 103.341 10.5963 102.958 10.5963C102.525 10.5963 102.174 10.7474 101.904 11.0497C101.638 11.3487 101.505 11.7266 101.505 12.1833V15.0616H100.685V10.0147H101.505V10.7343H101.525C101.718 10.455 101.954 10.2463 102.234 10.1083C102.514 9.96706 102.837 9.89641 103.203 9.89641C103.763 9.89641 104.191 10.0755 104.487 10.4336C104.783 10.7885 104.932 11.3027 104.932 11.9763V15.0616Z" fill="white"/>
<path d="M111.436 14.7412C111.286 14.8891 111.121 14.9975 110.941 15.0665C110.762 15.1355 110.55 15.17 110.307 15.17C109.904 15.17 109.593 15.0599 109.373 14.8398C109.153 14.6163 109.043 14.2976 109.043 13.8836V10.7047H108.164V10.0147H109.043V8.82199L109.862 8.67906V10.0147H111.231V10.7047H109.862V13.8146C109.862 14.0545 109.909 14.2286 110.002 14.3371C110.096 14.4455 110.242 14.4997 110.442 14.4997C110.542 14.4997 110.637 14.48 110.727 14.4406C110.82 14.4011 110.917 14.3256 111.016 14.2138L111.436 14.7412Z" fill="white"/>
<path d="M116.682 15.0616H115.862V12.065C115.862 11.5688 115.766 11.2008 115.573 10.961C115.383 10.7178 115.095 10.5963 114.708 10.5963C114.275 10.5963 113.924 10.7474 113.654 11.0497C113.388 11.3487 113.255 11.7282 113.255 12.1882V15.0616H112.435V7.58984H113.255V10.7343H113.274C113.468 10.455 113.704 10.2463 113.984 10.1083C114.264 9.96706 114.587 9.89641 114.953 9.89641C115.513 9.89641 115.941 10.0738 116.237 10.4287C116.533 10.7836 116.682 11.2994 116.682 11.9763V15.0616Z" fill="white"/>
<path d="M122.322 12.6811H118.63C118.63 13.3053 118.78 13.7621 119.08 14.0512C119.383 14.3371 119.742 14.48 120.159 14.48C120.472 14.48 120.746 14.4093 120.983 14.2681C121.223 14.1235 121.421 13.9099 121.577 13.6273L122.247 13.9625C122.067 14.3239 121.796 14.618 121.433 14.8447C121.073 15.0681 120.63 15.1798 120.104 15.1798C119.424 15.1798 118.866 14.9581 118.43 14.5145C117.997 14.0709 117.781 13.4187 117.781 12.5578C117.781 11.7923 118 11.1581 118.44 10.6554C118.88 10.1494 119.443 9.89641 120.129 9.89641C120.825 9.89641 121.364 10.1051 121.747 10.5223C122.13 10.9363 122.322 11.5146 122.322 12.2572V12.6811ZM121.482 12.0058C121.482 11.5688 121.361 11.2255 121.118 10.9758C120.875 10.7228 120.54 10.5963 120.114 10.5963C119.701 10.5963 119.363 10.731 119.1 11.0004C118.84 11.2698 118.685 11.605 118.635 12.0058H121.482Z" fill="white"/>
<path d="M46.2207 34.6666L51.5536 20.468H54.2301L59.523 34.6666H56.9664L55.7281 31.3002H49.9557L48.7673 34.6666H46.2207ZM50.5949 29.3001H55.0789L53.1215 23.6661C53.0683 23.5209 53.0217 23.3922 52.9817 23.28C52.9484 23.1612 52.9085 23.0159 52.8619 22.8443H52.8119C52.7587 23.0027 52.7154 23.1414 52.6821 23.2602C52.6488 23.379 52.6055 23.5143 52.5523 23.6661L50.5949 29.3001Z" fill="white"/>
<path d="M62.2306 33.6072H62.1907V39.3302H59.8638V24.5276H62.1907V25.9732H62.2306C62.6367 25.4121 63.1294 24.9929 63.7087 24.7157C64.2945 24.4318 64.9503 24.2899 65.676 24.2899C67.0342 24.2899 68.0928 24.7355 68.8518 25.6266C69.6108 26.5178 69.9903 27.7587 69.9903 29.3496C69.9903 31.013 69.5642 32.3563 68.712 33.3795C67.8665 34.396 66.7346 34.9043 65.3165 34.9043C64.6574 34.9043 64.0682 34.7954 63.5489 34.5775C63.0362 34.3597 62.5968 34.0363 62.2306 33.6072ZM62.1607 29.1614V30.409C62.1607 31.1549 62.4104 31.7787 62.9097 32.2804C63.4157 32.7821 64.0515 33.0329 64.8172 33.0329C65.6827 33.0329 66.3618 32.7062 66.8545 32.0527C67.3538 31.3992 67.6035 30.5179 67.6035 29.409C67.6035 28.333 67.3738 27.5244 66.9144 26.9831C66.4617 26.4352 65.8358 26.1613 65.0369 26.1613C64.1913 26.1613 63.4989 26.4418 62.9596 27.0029C62.427 27.564 62.1607 28.2835 62.1607 29.1614Z" fill="white"/>
<path d="M73.2871 33.6072H73.2472V39.3302H70.9203V24.5276H73.2472V25.9732H73.2871C73.6932 25.4121 74.1859 24.9929 74.7652 24.7157C75.351 24.4318 76.0068 24.2899 76.7325 24.2899C78.0907 24.2899 79.1493 24.7355 79.9083 25.6266C80.6673 26.5178 81.0468 27.7587 81.0468 29.3496C81.0468 31.013 80.6207 32.3563 79.7685 33.3795C78.923 34.396 77.7911 34.9043 76.373 34.9043C75.7139 34.9043 75.1247 34.7954 74.6054 34.5775C74.0927 34.3597 73.6533 34.0363 73.2871 33.6072ZM73.2172 29.1614V30.409C73.2172 31.1549 73.4669 31.7787 73.9662 32.2804C74.4722 32.7821 75.108 33.0329 75.8737 33.0329C76.7392 33.0329 77.4183 32.7062 77.911 32.0527C78.4103 31.3992 78.66 30.5179 78.66 29.409C78.66 28.333 78.4303 27.5244 77.9709 26.9831C77.5182 26.4352 76.8923 26.1613 76.0934 26.1613C75.2478 26.1613 74.5554 26.4418 74.0161 27.0029C73.4835 27.564 73.2172 28.2835 73.2172 29.1614Z" fill="white"/>
<path d="M85.1138 31.9834L87.181 30.9536C87.4806 31.5939 87.8868 32.0725 88.3994 32.3893C88.9187 32.7062 89.5246 32.8646 90.217 32.8646C91.0426 32.8646 91.6784 32.6864 92.1245 32.3299C92.5772 31.9735 92.8036 31.4751 92.8036 30.8348C92.8036 30.2143 92.5805 29.7192 92.1345 29.3496C91.6884 28.9799 91.0026 28.6862 90.0772 28.4683C88.5725 28.1185 87.484 27.6234 86.8115 26.9831C86.1391 26.3362 85.8029 25.4682 85.8029 24.379C85.8029 23.0787 86.2589 22.0654 87.1711 21.3393C88.0898 20.6066 89.2217 20.2402 90.5665 20.2402C91.5785 20.2402 92.4707 20.4614 93.243 20.9036C94.0153 21.3393 94.6345 21.9895 95.1005 22.8542L93.0932 23.8246C92.7869 23.2635 92.4241 22.8608 92.0046 22.6166C91.5852 22.3723 91.0759 22.2502 90.4767 22.2502C89.731 22.2502 89.1518 22.4186 88.739 22.7552C88.3262 23.0853 88.1198 23.5275 88.1198 24.082C88.1198 24.6365 88.3095 25.0721 88.689 25.389C89.0685 25.7058 89.751 25.9765 90.7363 26.2009C92.2543 26.5376 93.3628 27.0557 94.0619 27.7554C94.7676 28.4551 95.1205 29.3958 95.1205 30.5774C95.1205 31.8381 94.6977 32.8745 93.8522 33.6864C93.0066 34.4983 91.8016 34.9043 90.237 34.9043C89.0319 34.9043 87.98 34.6501 87.0812 34.1419C86.189 33.6336 85.5332 32.9141 85.1138 31.9834Z" fill="white"/>
<path d="M101.473 33.9834C101.167 34.2739 100.811 34.4983 100.405 34.6567C99.9985 34.8152 99.5425 34.8944 99.0365 34.8944C98.0644 34.8944 97.3288 34.6534 96.8294 34.1716C96.3367 33.6831 96.0904 32.9702 96.0904 32.0329V26.3296H94.3727V24.5276H96.0904V22.0423L98.4073 21.6363V24.5276H101.014V26.3296H98.4073V31.9537C98.4073 32.3563 98.4872 32.6534 98.647 32.8448C98.8134 33.0362 99.0631 33.1319 99.396 33.1319C99.5691 33.1319 99.7389 33.0989 99.9053 33.0329C100.072 32.9669 100.248 32.8382 100.435 32.6468L101.473 33.9834Z" fill="white"/>
<path d="M106.668 34.9043C105.05 34.9043 103.765 34.4323 102.813 33.4884C101.861 32.5444 101.385 31.2738 101.385 29.6763C101.391 28.0591 101.897 26.7587 102.903 25.7751C103.908 24.785 105.213 24.2899 106.817 24.2899C108.429 24.2899 109.7 24.7751 110.632 25.7454C111.564 26.7158 112.03 27.97 112.03 29.508C112.03 31.079 111.538 32.3728 110.552 33.3894C109.574 34.3993 108.279 34.9043 106.668 34.9043ZM106.757 33.0329C107.676 33.0329 108.389 32.7227 108.895 32.1022C109.401 31.4751 109.654 30.6302 109.654 29.5674C109.654 28.5443 109.397 27.7224 108.885 27.1019C108.379 26.4748 107.67 26.1613 106.757 26.1613C105.845 26.1613 105.116 26.4848 104.57 27.1316C104.024 27.7719 103.751 28.6037 103.751 29.6268C103.751 30.6896 104.021 31.5246 104.56 32.1319C105.1 32.7326 105.832 33.0329 106.757 33.0329Z" fill="white"/>
<path d="M118.793 26.597C118.606 26.5244 118.413 26.4682 118.213 26.4286C118.02 26.3824 117.814 26.3593 117.594 26.3593C116.908 26.3593 116.353 26.663 115.926 27.2703C115.5 27.8776 115.287 28.6697 115.287 29.6466V34.6666H112.96V24.5276H115.287V26.3593H115.327C115.567 25.7124 115.92 25.2174 116.386 24.8741C116.852 24.5243 117.391 24.3493 118.004 24.3493C118.263 24.3493 118.503 24.3691 118.723 24.4087C118.942 24.4484 119.179 24.5243 119.432 24.6365L118.793 26.597Z" fill="white"/>
<path d="M128.391 30.1615H121.33C121.35 31.1384 121.617 31.8744 122.129 32.3695C122.649 32.858 123.285 33.1022 124.037 33.1022C124.569 33.1022 125.042 32.9801 125.455 32.7359C125.868 32.485 126.217 32.1154 126.504 31.6269L128.291 32.5873C127.825 33.3267 127.229 33.8976 126.504 34.3003C125.785 34.703 124.936 34.9043 123.957 34.9043C122.452 34.9043 121.247 34.4554 120.342 33.5577C119.436 32.66 118.984 31.3695 118.984 29.6862C118.984 28.0822 119.446 26.7818 120.372 25.785C121.304 24.7883 122.469 24.2899 123.867 24.2899C125.305 24.2899 126.417 24.7157 127.203 25.5672C127.995 26.4187 128.391 27.6531 128.391 29.2704V30.1615ZM126.144 28.5178C126.144 27.7257 125.944 27.1118 125.545 26.6762C125.145 26.2405 124.599 26.0227 123.907 26.0227C123.181 26.0227 122.592 26.2636 122.139 26.7455C121.687 27.2208 121.414 27.8115 121.32 28.5178H126.144Z" fill="white"/>
<path d="M26.5456 13.0258C27.59 11.8899 28.1745 10.3306 28.0821 8.74023C26.6374 8.74023 24.9623 9.57271 23.9018 10.7996C23.0717 11.8141 22.1806 13.4044 22.5033 14.9941C23.9942 15.1762 25.6083 14.2527 26.5456 13.0258Z" fill="white"/>
<path d="M33.073 18.0663C32.782 18.2373 30.0356 19.8515 30.0356 23.2939C30.0424 23.5075 30.0645 23.7101 30.0898 23.9098H30.0886C30.5437 27.4939 33.7417 28.7754 33.7996 28.7754C33.7888 28.789 33.7648 28.859 33.7247 28.9759C33.5394 29.5168 33.0102 31.0616 31.848 32.6672C30.7266 34.3491 29.4814 36.045 27.5907 36.045C26.7238 36.045 26.1248 35.7844 25.5044 35.5145C24.8379 35.2245 24.1466 34.9237 23.0717 34.9237C21.8831 34.9237 21.1492 35.2427 20.4642 35.5403C19.8649 35.8008 19.3029 36.045 18.5066 36.045C16.6159 36.045 15.279 34.2581 14.096 32.5919C12.5915 30.4567 11.3161 27.1323 11.2194 23.9098C11.2185 23.8769 11.2159 23.8437 11.2133 23.8105C11.2105 23.7745 11.2077 23.7385 11.2071 23.7029C11.1757 21.9614 11.5144 20.2498 12.3747 18.796C13.5885 16.7663 15.7562 15.3884 18.1229 15.3429C19.1582 15.3086 20.1284 15.7132 20.9764 16.0668C21.6139 16.3327 22.1823 16.5697 22.6573 16.5697C23.0893 16.5697 23.6745 16.3661 24.368 16.1247C25.3768 15.7737 26.6148 15.3429 27.9442 15.3429C28.9123 15.3435 31.4951 15.6311 33.0938 18.0539C33.0898 18.0564 33.0828 18.0605 33.073 18.0663Z" fill="white"/>
</svg>
