<svg width="148" height="46" viewBox="0 0 148 46" fill="none" xmlns="http://www.w3.org/2000/svg">
<path d="M49.037 15.7404C48.6553 16.0279 48.2117 16.2579 47.7063 16.4304C47.2009 16.6029 46.6627 16.6891 46.0919 16.6891C44.9611 16.6891 44.0539 16.3333 43.3703 15.6218C42.6868 14.9102 42.345 13.9686 42.345 12.7971C42.345 11.5752 42.6849 10.5869 43.3649 9.83223C44.0484 9.07754 44.9593 8.7002 46.0973 8.7002C46.7845 8.7002 47.3754 8.83855 47.8699 9.11527C48.3644 9.39199 48.7407 9.78012 48.9989 10.2796L48.1917 10.6462C47.9917 10.2868 47.7135 10.0137 47.3572 9.82684C47.0009 9.63637 46.5809 9.54113 46.0973 9.54113C45.2574 9.54113 44.5811 9.83582 44.0684 10.4252C43.5594 11.011 43.3049 11.7782 43.3049 12.727C43.3049 13.7009 43.5612 14.4664 44.0739 15.0234C44.5902 15.5768 45.2738 15.8536 46.1246 15.8536C46.4991 15.8536 46.8591 15.805 47.2045 15.708C47.5499 15.611 47.8553 15.4672 48.1208 15.2768V13.39H46.25V12.5707H49.037V15.7404Z" fill="white"/>
<path d="M54.8892 16.5597H50.7441V8.82957H54.7147V9.64895H51.6604V12.2203H54.4856V13.0343H51.6604V15.7404H54.8892V16.5597Z" fill="white"/>
<path d="M60.845 9.64895H58.587V16.5597H57.6707V9.64895H55.4182V8.82957H60.845V9.64895Z" fill="white"/>
<path d="M65.5681 16.5597H64.6519V8.82957H65.5681V16.5597Z" fill="white"/>
<path d="M72.0802 9.64895H69.8223V16.5597H68.906V9.64895H66.6535V8.82957H72.0802V9.64895Z" fill="white"/>
<path d="M79.0832 16.6891C77.9778 16.6891 77.0834 16.3297 76.3998 15.611C75.7162 14.8886 75.3745 13.9471 75.3745 12.7863C75.3745 11.5536 75.7271 10.5654 76.4325 9.82145C77.1416 9.07395 78.0687 8.7002 79.2141 8.7002C80.2903 8.7002 81.1593 9.05598 81.8211 9.76754C82.4828 10.4791 82.8137 11.4225 82.8137 12.5976C82.8137 13.8159 82.4701 14.8024 81.7829 15.5571C81.0957 16.3118 80.1958 16.6891 79.0832 16.6891ZM79.0832 15.8536C79.9122 15.8536 80.5812 15.5643 81.0903 14.9857C81.5993 14.4071 81.8538 13.6524 81.8538 12.7216C81.8538 11.7621 81.6048 10.993 81.1066 10.4144C80.6085 9.83223 79.9558 9.54113 79.1486 9.54113C78.3087 9.54113 77.6288 9.83043 77.1088 10.409C76.5925 10.984 76.3344 11.7495 76.3344 12.7054C76.3344 13.6434 76.5871 14.4035 77.0925 14.9857C77.6015 15.5643 78.2651 15.8536 79.0832 15.8536Z" fill="white"/>
<path d="M90.5475 16.5597H89.424L85.3989 10.3982C85.3407 10.312 85.2989 10.2509 85.2735 10.215C85.248 10.1754 85.2135 10.1215 85.1699 10.0532H85.1371C85.1444 10.1251 85.1499 10.2383 85.1535 10.3929C85.1571 10.5438 85.1589 10.7379 85.1589 10.975V16.5597H84.2427V8.82957H85.4316L89.3476 14.894C89.4167 15.0018 89.4694 15.0881 89.5058 15.1528C89.5422 15.2139 89.584 15.2857 89.6312 15.3684H89.653C89.6458 15.2606 89.6403 15.115 89.6367 14.9318C89.6331 14.7485 89.6312 14.5293 89.6312 14.2741V8.82957H90.5475V16.5597Z" fill="white"/>
<path d="M54.7855 33.7603C54.108 34.2561 53.323 34.6585 52.4305 34.9675C51.538 35.2702 50.6097 35.4215 49.6455 35.4215C47.4892 35.4215 45.7792 34.7937 44.5154 33.5381C43.2515 32.2826 42.6196 30.5924 42.6196 28.4676C42.6196 26.2848 43.2515 24.5142 44.5154 23.1556C45.7792 21.7905 47.4208 21.108 49.4403 21.108C50.7563 21.108 51.8637 21.3656 52.7627 21.8807C53.6617 22.3893 54.3425 23.0847 54.805 23.9669L52.8604 24.894C52.5152 24.2952 52.0624 23.851 51.5022 23.5612C50.9419 23.2715 50.2937 23.1266 49.5576 23.1266C48.2351 23.1266 47.157 23.5934 46.3231 24.527C45.4958 25.4607 45.0821 26.7162 45.0821 28.2937C45.0821 29.9099 45.4958 31.1654 46.3231 32.0604C47.157 32.9554 48.2547 33.4029 49.6162 33.4029C50.1439 33.4029 50.6553 33.3385 51.1504 33.2098C51.6455 33.0745 52.082 32.8782 52.4598 32.6206V29.7521H49.3524V27.7722H54.7855V33.7603Z" fill="white"/>
<path d="M60.7377 35.4215C59.1546 35.4215 57.8973 34.9611 56.9658 34.0404C56.0342 33.1196 55.5684 31.8801 55.5684 30.322C55.5749 28.7444 56.07 27.476 57.0537 26.5166C58.0374 25.5508 59.3142 25.0679 60.8842 25.0679C62.4607 25.0679 63.705 25.5411 64.617 26.4876C65.5291 27.4341 65.9851 28.6575 65.9851 30.1578C65.9851 31.6902 65.503 32.9522 64.5389 33.9438C63.5812 34.9289 62.3142 35.4215 60.7377 35.4215ZM60.8256 33.5961C61.7246 33.5961 62.4217 33.2935 62.9168 32.6882C63.4119 32.0765 63.6594 31.2524 63.6594 30.2157C63.6594 29.2177 63.4086 28.4161 62.907 27.8108C62.4119 27.1991 61.7181 26.8933 60.8256 26.8933C59.9331 26.8933 59.2198 27.2088 58.6856 27.8398C58.1514 28.4644 57.8843 29.2756 57.8843 30.2737C57.8843 31.3103 58.1481 32.1248 58.6758 32.7172C59.2035 33.3031 59.9201 33.5961 60.8256 33.5961Z" fill="white"/>
<path d="M71.4194 35.4215C69.8363 35.4215 68.579 34.9611 67.6475 34.0404C66.7159 33.1196 66.2501 31.8801 66.2501 30.322C66.2566 28.7444 66.7517 27.476 67.7354 26.5166C68.7191 25.5508 69.996 25.0679 71.5659 25.0679C73.1425 25.0679 74.3867 25.5411 75.2988 26.4876C76.2108 27.4341 76.6668 28.6575 76.6668 30.1578C76.6668 31.6902 76.1847 32.9522 75.2206 33.9438C74.263 34.9289 72.9959 35.4215 71.4194 35.4215ZM71.5073 33.5961C72.4063 33.5961 73.1034 33.2935 73.5985 32.6882C74.0936 32.0765 74.3411 31.2524 74.3411 30.2157C74.3411 29.2177 74.0903 28.4161 73.5887 27.8108C73.0936 27.1991 72.3998 26.8933 71.5073 26.8933C70.6148 26.8933 69.9015 27.2088 69.3673 27.8398C68.8331 28.4644 68.566 29.2756 68.566 30.2737C68.566 31.3103 68.8299 32.1248 69.3575 32.7172C69.8852 33.3031 70.6018 33.5961 71.5073 33.5961Z" fill="white"/>
<path d="M86.8502 34.6199C86.8502 36.2875 86.3909 37.5753 85.4723 38.4831C84.5603 39.391 83.2932 39.8449 81.6711 39.8449C80.6353 39.8449 79.7331 39.6614 78.9643 39.2944C78.1956 38.9338 77.5507 38.4155 77.0295 37.7395L78.681 36.5225C79.0588 37.0441 79.4855 37.4336 79.9611 37.6912C80.4431 37.9487 81.0229 38.0775 81.7004 38.0775C82.606 38.0775 83.3095 37.8199 83.8111 37.3048C84.3193 36.7897 84.5733 36.0235 84.5733 35.0062V33.8665H84.5343C84.1694 34.3752 83.7232 34.7615 83.1955 35.0255C82.6744 35.2895 82.0262 35.4215 81.2509 35.4215C79.948 35.4215 78.9025 34.9901 78.1142 34.1273C77.326 33.258 76.9318 32.0476 76.9318 30.4958C76.9318 28.796 77.3813 27.4663 78.2803 26.507C79.1858 25.5476 80.3194 25.0679 81.6809 25.0679C82.2737 25.0679 82.8209 25.1773 83.3226 25.3963C83.8242 25.6152 84.2281 25.9307 84.5343 26.3428H84.5733V25.2997H86.8502V34.6199ZM84.5929 30.5924V29.4431C84.5929 28.7348 84.3518 28.1328 83.8698 27.637C83.3877 27.1412 82.7656 26.8933 82.0034 26.8933C81.1565 26.8933 80.4855 27.1959 79.9904 27.8012C79.4953 28.4064 79.2477 29.2692 79.2477 30.3896C79.2477 31.3876 79.4757 32.1731 79.9318 32.7462C80.3943 33.3128 81.0327 33.5961 81.847 33.5961C82.6613 33.5961 83.3226 33.3192 83.8307 32.7655C84.3388 32.2117 84.5929 31.4874 84.5929 30.5924Z" fill="white"/>
<path d="M88.3953 35.1897V20.5479H90.6721V35.1897H88.3953Z" fill="white"/>
<path d="M100.797 30.7952H93.8882C93.9077 31.7481 94.1683 32.4661 94.6699 32.949C95.1781 33.4255 95.8002 33.6637 96.5363 33.6637C97.0575 33.6637 97.52 33.5446 97.9239 33.3063C98.3278 33.0617 98.6698 32.7011 98.95 32.2246L100.699 33.1615C100.243 33.8826 99.66 34.4396 98.95 34.8323C98.2464 35.2251 97.4158 35.4215 96.4582 35.4215C94.9859 35.4215 93.8067 34.9836 92.9208 34.108C92.0348 33.2323 91.5918 31.9735 91.5918 30.3316C91.5918 28.767 92.0446 27.4985 92.9501 26.5263C93.8621 25.554 95.0022 25.0679 96.3702 25.0679C97.7773 25.0679 98.8653 25.4832 99.634 26.3138C100.409 27.1444 100.797 28.3485 100.797 29.926V30.7952ZM98.5982 29.1919C98.5982 28.4193 98.4027 27.8205 98.0119 27.3955C97.621 26.9706 97.0868 26.7581 96.4093 26.7581C95.6992 26.7581 95.1227 26.9931 94.6797 27.4631C94.2367 27.9267 93.9696 28.503 93.8784 29.1919H98.5982Z" fill="white"/>
<path d="M107.737 30.3702V35.1897H105.411V21.3398H109.731C111.34 21.3398 112.574 21.7133 113.434 22.4602C114.3 23.2006 114.734 24.2695 114.734 25.6667C114.734 27.0897 114.252 28.2293 113.287 29.0857C112.323 29.9421 111.024 30.3702 109.389 30.3702H107.737ZM107.737 23.2232V28.4772H109.281C110.252 28.4772 110.994 28.2422 111.509 27.7722C112.03 27.2957 112.291 26.6261 112.291 25.7633C112.291 24.9327 112.046 24.3017 111.558 23.8703C111.076 23.4389 110.359 23.2232 109.408 23.2232H107.737Z" fill="white"/>
<path d="M115.468 35.1897V20.5479H117.745V35.1897H115.468Z" fill="white"/>
<path d="M126.951 35.1897H124.752V33.9631H124.713C124.361 34.4396 123.931 34.8034 123.423 35.0545C122.915 35.2991 122.348 35.4215 121.723 35.4215C120.798 35.4215 120.039 35.1607 119.446 34.6392C118.86 34.1176 118.567 33.4351 118.567 32.5916C118.567 31.6838 118.86 30.9562 119.446 30.4089C120.039 29.8551 120.886 29.5171 121.987 29.3948L124.762 29.0857V28.6124C124.762 28.0008 124.589 27.5436 124.244 27.241C123.899 26.9319 123.446 26.7774 122.886 26.7774C122.332 26.7774 121.866 26.8997 121.488 27.1444C121.11 27.3891 120.798 27.74 120.55 28.1971L118.85 27.3376C119.189 26.6744 119.723 26.1303 120.453 25.7053C121.182 25.2804 122.049 25.0679 123.052 25.0679C124.316 25.0679 125.28 25.3963 125.944 26.053C126.615 26.7033 126.951 27.6498 126.951 28.8925V35.1897ZM124.762 31.1719V30.631L122.348 30.8918C121.795 30.9497 121.391 31.101 121.137 31.3457C120.882 31.5904 120.755 31.9188 120.755 32.3309C120.755 32.7494 120.899 33.0906 121.185 33.3546C121.479 33.6122 121.856 33.741 122.319 33.741C123.049 33.741 123.638 33.4995 124.088 33.0166C124.537 32.5272 124.762 31.9123 124.762 31.1719Z" fill="white"/>
<path d="M137.427 25.2997L132.776 37.16C132.431 38.0421 131.965 38.7085 131.379 39.1592C130.799 39.6164 130.092 39.8449 129.258 39.8449C128.854 39.8449 128.473 39.7999 128.115 39.7097C127.763 39.626 127.427 39.4908 127.108 39.3041L128.095 37.7201C128.297 37.836 128.48 37.9165 128.642 37.9616C128.805 38.0131 128.975 38.0389 129.151 38.0389C129.457 38.0389 129.717 37.9616 129.932 37.8071C130.154 37.659 130.353 37.3853 130.528 36.9861L131.261 35.3056L127.333 25.2997H129.815L132.111 31.8576C132.183 32.0572 132.238 32.2343 132.278 32.3888C132.317 32.5433 132.362 32.7333 132.414 32.9586H132.463C132.509 32.7333 132.554 32.5466 132.6 32.3985C132.652 32.2504 132.711 32.0765 132.776 31.8769L135.092 25.2997H137.427Z" fill="white"/>
<path fill-rule="evenodd" clip-rule="evenodd" d="M10.7415 9.39647C10.4221 9.7353 10.239 10.2572 10.239 10.9356V35.056C10.239 35.7343 10.4221 36.2562 10.7536 36.5831L10.8402 36.6554L24.5142 23.1403V22.8365L10.8281 9.32422L10.7415 9.39647Z" fill="url(#paint0_linear_101_493)"/>
<path fill-rule="evenodd" clip-rule="evenodd" d="M29.063 27.6623L24.5022 23.153V22.8374L29.0645 18.3281L29.1631 18.3885L34.5593 21.4196C36.1045 22.2804 36.1045 23.6988 34.5593 24.5715L29.1631 27.6027C29.1617 27.602 29.063 27.6623 29.063 27.6623Z" fill="url(#paint1_linear_101_493)"/>
<path fill-rule="evenodd" clip-rule="evenodd" d="M29.1616 27.6019L24.5021 22.9951L10.7415 36.5958C11.244 37.1297 12.09 37.19 13.0354 36.6681L29.1616 27.6019Z" fill="url(#paint2_linear_101_493)"/>
<path fill-rule="evenodd" clip-rule="evenodd" d="M29.1616 18.3901L13.0354 9.33581C12.0914 8.80197 11.244 8.87422 10.7415 9.40806L24.5006 22.9954L29.1616 18.3901Z" fill="url(#paint3_linear_101_493)"/>
<defs>
<linearGradient id="paint0_linear_101_493" x1="32.6607" y1="1.39821" x2="3.19792" y2="9.34651" gradientUnits="userSpaceOnUse">
<stop stop-color="#047ED6"/>
<stop offset="1" stop-color="#50E6FF"/>
</linearGradient>
<linearGradient id="paint1_linear_101_493" x1="36.5718" y1="22.9942" x2="21.2733" y2="22.9942" gradientUnits="userSpaceOnUse">
<stop stop-color="#FFDA1C"/>
<stop offset="1" stop-color="#FEB705"/>
</linearGradient>
<linearGradient id="paint2_linear_101_493" x1="26.6239" y1="25.4985" x2="9.34464" y2="54.9276" gradientUnits="userSpaceOnUse">
<stop stop-color="#D9414F"/>
<stop offset="1" stop-color="#8C193F"/>
</linearGradient>
<linearGradient id="paint3_linear_101_493" x1="7.27523" y1="1.37" x2="14.9835" y2="14.5147" gradientUnits="userSpaceOnUse">
<stop stop-color="#33C481"/>
<stop offset="1" stop-color="#61E3A7"/>
</linearGradient>
</defs>
</svg>
